<svg width="24" height="24" viewBox="0 0 24 24" fill="none" xmlns="http://www.w3.org/2000/svg">
    <path d="M2 19.5945V19.866V19.9048H7.95538V19.5945L5.54995 16.6071V8.45964L10.7973 19.9048H11.4083L15.9282 8.45964V17.4408C15.9282 17.7137 15.8167 17.9747 15.6196 18.1633L14.1242 19.5945V19.9436H21.9612V19.5945L20.526 18.1913C20.3335 18.0031 20.225 17.7454 20.225 17.4762V6.54947C20.225 6.2765 20.3366 6.0154 20.5339 5.82674L22 4.42473V4.05615H16.4908L12.5432 13.8913L8.05238 4.05615H2.25218V4.39563L4.13653 6.66895C4.28525 6.84836 4.36663 7.07408 4.36663 7.30712V16.6071L2 19.5945Z" fill="white"/>
</svg>
