<svg width="540" height="490" viewBox="0 0 540 490" fill="none" xmlns="http://www.w3.org/2000/svg">
    <rect opacity="0.05" x="239" y="220" width="190" height="190" rx="24" fill="#212121"/>
    <rect opacity="0.05" x="20" y="220" width="190" height="190" rx="24" fill="#212121"/>
    <rect opacity="0.05" x="240.5" y="1.5" width="187" height="187" rx="22.5" stroke="#212121" stroke-width="3"/>
    <rect x="363" y="163" width="177" height="178" rx="24" fill="#5E2BF6"/>
    <circle cx="452" cy="252" r="53" fill="white"/>
    <path d="M399.215 264C389.259 274.758 384.744 284.46 388.095 290.413C394.598 301.965 428.257 295.027 463.275 274.916C498.292 254.806 521.407 229.139 514.905 217.587C511.685 211.868 501.811 210.681 488.411 213.38" stroke="url(#paint0_linear)" stroke-width="5" stroke-linecap="round"/>
    <path d="M427 232H416L421.704 241L427 232Z" fill="#5C89FF"/>
    <path d="M445.413 222.12L455.821 217.351L446.362 210.958L445.413 222.12Z" fill="#5C89FF"/>
    <path d="M475.537 236.314L485.945 231.545L476.486 225.152L475.537 236.314Z" fill="#5C89FF"/>
    <path d="M421.265 274.474L431.673 269.705L422.214 263.312L421.265 274.474Z" fill="#5C89FF"/>
    <path d="M465.756 248.967L454.515 251.136L462.191 259.587L465.756 248.967Z" fill="#5C89FF"/>
    <path d="M494.268 269.704L482.827 269.319L488.432 279.265L494.268 269.704Z" fill="#5C89FF"/>
    <path d="M460.348 288.36L448.907 287.975L454.512 297.921L460.348 288.36Z" fill="#5C89FF"/>
    <rect x="134" y="312" width="177" height="178" rx="24" fill="#212121"/>
    <ellipse cx="191.75" cy="369.277" rx="30.75" ry="30.2769" fill="#EFEAFE"/>
    <ellipse cx="253.25" cy="431.723" rx="30.75" ry="30.2769" fill="#43E296"/>
    <circle cx="191.75" cy="430.304" r="30.75" fill="#5E2BF6"/>
    <rect opacity="0.05" x="21.5" y="1.5" width="187" height="187" rx="22.5" stroke="#212121" stroke-width="3"/>
    <rect x="141" y="68" width="179.528" height="179.528" rx="24" transform="rotate(-5.13869 141 68)" fill="url(#paint1_linear)"/>
    <ellipse cx="237.932" cy="156.07" rx="12.6182" ry="78.4125" transform="rotate(122.758 237.932 156.07)" fill="#5E2BF6"/>
    <path d="M227.8 135.105C253.06 103.867 276.817 82.4235 282.01 86.5067C287.488 90.8144 270.228 121.903 243.459 155.944C216.69 189.986 190.549 214.09 185.071 209.782C180.357 206.076 192.479 182.539 213.01 154.353" stroke="url(#paint2_linear)" stroke-width="4"/>
    <path d="M369 31.1384C369 22.2254 376.214 15 385.114 15H486.886C495.786 15 503 22.2254 503 31.1384V70.2104C503 79.1234 495.786 86.3489 486.886 86.3489H466.235C461.697 86.3489 457.37 88.265 454.316 91.6265L441.965 105.222C438.559 108.972 432.653 108.918 429.316 105.107L417.703 91.846C414.644 88.3522 410.229 86.3489 405.589 86.3489H385.114C376.214 86.3489 369 79.1234 369 70.2104V31.1384Z" fill="#E54775"/>
    <path d="M404.5 64.3265C404.36 64.3267 404.222 64.2973 404.094 64.2403C403.966 64.1833 403.851 64.0999 403.756 63.9953L391.756 50.7845C390.282 49.0896 389.478 46.8945 389.5 44.6267C389.484 42.3674 390.288 40.1821 391.756 38.4935L391.939 38.2881C392.631 37.4722 393.487 36.8179 394.448 36.3694C395.408 35.921 396.452 35.6889 397.509 35.6889C398.565 35.6889 399.609 35.921 400.57 36.3694C401.531 36.8179 402.386 37.4722 403.078 38.2881L404.5 39.8796L405.922 38.2727C406.614 37.4569 407.469 36.8025 408.43 36.3541C409.391 35.9057 410.435 35.6736 411.491 35.6736C412.548 35.6736 413.592 35.9057 414.553 36.3541C415.514 36.8025 416.369 37.4569 417.061 38.2727L417.244 38.4782C418.712 40.1668 419.516 42.3521 419.5 44.6114C419.516 46.8707 418.712 49.056 417.244 50.7446L405.244 63.9555C405.152 64.0672 405.039 64.158 404.911 64.2219C404.783 64.2858 404.643 64.3215 404.5 64.3265Z" fill="white"/>
    <path d="M443.391 62.5646H440.489V42.3541L436.748 46.4543L435 44.6038L440.838 38.3628H443.391V62.5646Z" fill="white"/>
    <path d="M456.811 63C455.273 63 453.909 62.6372 452.72 61.9115C451.555 61.1616 450.623 60.1698 449.924 58.9361C449.248 57.7025 448.735 56.372 448.385 54.9448C448.059 53.5177 447.896 52.03 447.896 50.4819C447.896 48.9337 448.059 47.4461 448.385 46.0189C448.735 44.5917 449.248 43.2733 449.924 42.0639C450.623 40.8302 451.555 39.8505 452.72 39.1248C453.909 38.3749 455.273 38 456.811 38C458.326 38 459.678 38.3749 460.866 39.1248C462.055 39.8505 462.987 40.8302 463.663 42.0639C464.362 43.2733 464.875 44.5917 465.202 46.0189C465.551 47.4461 465.726 48.9337 465.726 50.4819C465.726 52.03 465.551 53.5177 465.202 54.9448C464.875 56.372 464.362 57.7025 463.663 58.9361C462.987 60.1698 462.055 61.1616 460.866 61.9115C459.678 62.6372 458.326 63 456.811 63ZM453.315 58.8273C454.247 59.8191 455.412 60.3149 456.811 60.3149C458.209 60.3149 459.375 59.8191 460.307 58.8273C461.239 57.8113 461.88 56.6018 462.23 55.1988C462.579 53.7958 462.754 52.2235 462.754 50.4819C462.754 48.7402 462.579 47.1679 462.23 45.7649C461.88 44.3619 461.239 43.1645 460.307 42.1727C459.375 41.1809 458.209 40.6851 456.811 40.6851C455.412 40.6851 454.247 41.1809 453.315 42.1727C452.383 43.1645 451.742 44.3619 451.392 45.7649C451.042 47.1679 450.868 48.7402 450.868 50.4819C450.868 52.2235 451.042 53.7958 451.392 55.1988C451.742 56.6018 452.383 57.8113 453.315 58.8273Z" fill="white"/>
    <path d="M485 62.5646H481.644L475.561 54.6909L472.764 57.5573V62.5646H470.142V38.3628H472.764V54.3643L481.644 45.0392H484.965L477.483 52.9855L485 62.5646Z" fill="white"/>
    <path d="M0 215.138C0 206.225 7.21445 199 16.1139 199H117.886C126.786 199 134 206.225 134 215.138V254.21C134 263.123 126.786 270.349 117.886 270.349H97.2351C92.6974 270.349 88.37 272.265 85.3162 275.627L72.9651 289.222C69.559 292.972 63.6532 292.918 60.3159 289.107L48.7032 275.846C45.6436 272.352 41.2286 270.349 36.5885 270.349H16.1139C7.21445 270.349 0 263.123 0 254.21V215.138Z" fill="#2A64F6"/>
    <path d="M28.382 248.555C28.3523 246.038 28.3515 243.52 28.35 241.003C28.3486 238.486 28.3545 235.967 28.382 233.45C28.382 233.786 28.3871 232.193 28.4131 231.157C25.2525 231.157 22.0918 231.157 18.9311 231.157C18.1288 231.157 17.5084 231.441 17.1573 232.184C17.1009 232.299 17.052 232.42 17 232.541V248.431C17.1484 248.683 17.2627 248.963 17.4498 249.182C17.7578 249.541 18.1875 249.693 18.6632 249.693C21.9058 249.693 25.1491 249.702 28.3923 249.689C28.3864 249.144 28.3834 248.671 28.382 248.555Z" fill="white"/>
    <path d="M54.8932 230.915C54.6468 229.967 54.1124 229.222 53.1558 228.891C52.6575 228.729 52.1359 228.649 51.6113 228.652C48.8267 228.631 46.0413 228.644 43.2567 228.645C42.8989 228.645 42.8856 228.623 42.9427 228.284C43.1156 227.284 43.2626 226.281 43.4622 225.286C43.7324 223.94 43.7665 222.604 43.3101 221.295C42.8989 220.119 42.4328 218.96 41.9868 217.796C41.7367 217.139 41.3137 216.659 40.6383 216.38C39.361 215.851 38.1015 215.862 36.8784 216.491C36.0962 216.893 35.6383 217.534 35.6635 218.449C35.6991 219.736 35.7088 221.025 35.7622 222.312C35.7867 222.726 35.6858 223.139 35.472 223.498C34.4619 225.203 33.4845 226.928 32.4291 228.606C31.8836 229.471 31.1993 230.252 30.5603 231.058C30.5376 231.086 30.5128 231.114 30.4861 231.141C30.4861 232.302 30.4861 233.463 30.4861 234.625C30.4861 239.021 30.4732 243.417 30.4475 247.813C31.3121 248.35 32.2384 248.595 33.2833 248.589C38.0384 248.561 42.7935 248.576 47.5479 248.576C48.3747 248.576 49.1918 248.527 49.9889 248.27C51.572 247.759 52.5665 246.553 52.6919 244.924C52.7401 244.304 52.7112 243.69 52.4841 243.096C52.4522 243.012 52.5056 242.865 52.568 242.783C53.1936 241.962 53.5662 241.054 53.4994 240.017C53.4771 239.659 53.3628 239.303 53.2508 238.958C53.1914 238.773 53.1921 238.65 53.3198 238.492C53.9135 237.756 54.2764 236.919 54.2475 235.974C54.2341 235.528 54.0664 235.088 53.981 234.643C53.9603 234.537 53.9432 234.381 54.0018 234.317C54.5139 233.756 54.7989 233.094 54.9444 232.365C54.9566 232.337 54.9742 232.312 54.9963 232.292V231.263C54.9637 231.147 54.9251 231.032 54.8932 230.915Z" fill="white"/>
    <path d="M74.3906 246.565H71.4889V226.354L67.748 230.454L66 228.604L71.8385 222.363H74.3906V246.565Z" fill="white"/>
    <path d="M87.8109 247C86.2726 247 84.9092 246.637 83.7205 245.911C82.5551 245.162 81.6228 244.17 80.9236 242.936C80.2477 241.702 79.735 240.372 79.3854 238.945C79.0591 237.518 78.8959 236.03 78.8959 234.482C78.8959 232.934 79.0591 231.446 79.3854 230.019C79.735 228.592 80.2477 227.273 80.9236 226.064C81.6228 224.83 82.5551 223.851 83.7205 223.125C84.9092 222.375 86.2726 222 87.8109 222C89.3259 222 90.6777 222.375 91.8664 223.125C93.055 223.851 93.9873 224.83 94.6632 226.064C95.3625 227.273 95.8752 228.592 96.2015 230.019C96.5511 231.446 96.7259 232.934 96.7259 234.482C96.7259 236.03 96.5511 237.518 96.2015 238.945C95.8752 240.372 95.3625 241.702 94.6632 242.936C93.9873 244.17 93.055 245.162 91.8664 245.911C90.6777 246.637 89.3259 247 87.8109 247ZM84.3148 242.827C85.2471 243.819 86.4125 244.315 87.8109 244.315C89.2094 244.315 90.3747 243.819 91.307 242.827C92.2393 241.811 92.8802 240.602 93.2298 239.199C93.5795 237.796 93.7543 236.224 93.7543 234.482C93.7543 232.74 93.5795 231.168 93.2298 229.765C92.8802 228.362 92.2393 227.164 91.307 226.173C90.3747 225.181 89.2094 224.685 87.8109 224.685C86.4125 224.685 85.2471 225.181 84.3148 226.173C83.3825 227.164 82.7416 228.362 82.392 229.765C82.0424 231.168 81.8676 232.74 81.8676 234.482C81.8676 236.224 82.0424 237.796 82.392 239.199C82.7416 240.602 83.3825 241.811 84.3148 242.827Z" fill="white"/>
    <path d="M116 246.565H112.644L106.561 238.691L103.764 241.557V246.565H101.142V222.363H103.764V238.364L112.644 229.039H115.965L108.483 236.985L116 246.565Z" fill="white"/>
    <defs>
        <linearGradient id="paint0_linear" x1="465.059" y1="271.719" x2="431.872" y2="214.54" gradientUnits="userSpaceOnUse">
            <stop stop-color="#E54775"/>
            <stop offset="0.537227" stop-color="#E54775" stop-opacity="0"/>
        </linearGradient>
        <linearGradient id="paint1_linear" x1="287.614" y1="171.154" x2="165.507" y2="28.9627" gradientUnits="userSpaceOnUse">
            <stop stop-color="#43E296"/>
            <stop offset="1" stop-color="#96E547"/>
        </linearGradient>
        <linearGradient id="paint2_linear" x1="240.562" y1="158.135" x2="218.569" y2="141.618" gradientUnits="userSpaceOnUse">
            <stop stop-color="white"/>
            <stop offset="1" stop-color="white" stop-opacity="0"/>
        </linearGradient>
    </defs>
</svg>
