<svg width="24" height="24" viewBox="0 0 24 24" fill="none" xmlns="http://www.w3.org/2000/svg">
    <circle cx="12" cy="12" r="12" fill="white"/>
    <path d="M17.1134 6.62679L3.82419 12.1727C3.3941 12.3522 3.42178 12.9706 3.86619 13.1109L6.39484 13.9094C6.97479 14.0926 7.60657 14.0019 8.11157 13.663L14.1012 9.64346C14.2655 9.53317 14.4867 9.56529 14.6129 9.71777C14.6989 9.82173 14.6899 9.97453 14.5922 10.0676L10.1933 14.2589C9.82196 14.6127 9.87483 15.2196 10.3018 15.5039L15.0004 18.6328C15.6067 19.0365 16.4275 18.6773 16.5422 17.9579L18.2115 7.49108C18.3102 6.87238 17.6916 6.3855 17.1134 6.62679Z" fill="#212121"/>
</svg>
