<svg width="64" height="64" viewBox="0 0 64 64" fill="none" xmlns="http://www.w3.org/2000/svg">
    <path d="M0 20C0 8.95431 8.95431 0 20 0H44C55.0457 0 64 8.95431 64 20V44C64 55.0457 55.0457 64 44 64H20C8.95431 64 0 55.0457 0 44V20Z" fill="#EAEFFE"/>
    <path d="M31.5 50.9986C42.252 50.9986 51 42.2506 51 31.4986C51 20.7466 42.252 12 31.5 12C20.748 12 12 20.7466 12 31.4986C12 42.2506 20.7466 50.9986 31.5 50.9986ZM31.5 15.5443C40.2972 15.5443 47.4557 22.7014 47.4557 31.4986C47.4557 40.2959 40.2972 47.4543 31.5 47.4543C22.7028 47.4543 15.5457 40.2959 15.5457 31.4986C15.5457 22.7014 22.7028 15.5443 31.5 15.5443Z" fill="#2A64F6"/>
    <path d="M31.5007 45C38.9552 45 45 38.9541 45 31.5C45 24.0459 38.9552 18 31.5007 18C24.0462 18 18 24.0445 18 31.4987C18 38.9528 24.0448 45 31.5007 45ZM30.4378 32.7936C28.0035 32.0129 26.2866 30.8723 26.2866 28.6188C26.2866 26.5868 27.6897 24.9768 30.2149 24.4652V22.4108H32.7613V24.2872C34.3029 24.3531 35.3525 24.6656 36.1556 25.0005L35.4422 27.9701C34.8369 27.7248 33.7662 27.2119 32.069 27.2119C30.7503 27.2119 30.3468 27.6786 30.3468 28.1718C30.3468 28.7322 31.109 29.1555 32.9829 29.8254C35.7969 30.7405 36.8242 32.0143 36.8242 34.0463C36.8242 36.1231 35.3512 37.8188 32.6703 38.3107V40.5892H30.124V38.5111C28.5613 38.4241 27.0422 37.9981 26.1745 37.5498L26.9077 34.4682C27.9165 34.9587 29.2985 35.4506 30.8387 35.4506C31.9569 35.4506 32.76 35.1394 32.76 34.4234C32.7613 33.7324 32.1138 33.3078 30.4378 32.7936Z" fill="#2A64F6"/>
</svg>
