<svg width="24" height="24" viewBox="0 0 24 24" fill="none" xmlns="http://www.w3.org/2000/svg">
    <path fill-rule="evenodd" clip-rule="evenodd" d="M12.0079 0.0368192C9.15726 0.0339219 6.39878 1.04628 4.22677 2.89246C2.05476 4.73864 0.611203 7.29798 0.154784 10.1118C-0.301634 12.9257 0.258925 15.8101 1.73601 18.2482C3.21309 20.6862 5.51014 22.5186 8.21551 23.4169C8.81934 23.5274 9.04026 23.1592 9.04026 22.8352C9.04026 22.5112 9.04026 21.7969 9.04026 20.7954C5.70445 21.5318 5.00489 19.1901 5.00489 19.1901C4.7716 18.4572 4.2795 17.8342 3.62049 17.4375C2.53064 16.7011 3.70149 16.7011 3.70149 16.7011C4.08146 16.7531 4.4444 16.8917 4.76231 17.1062C5.08022 17.3207 5.34461 17.6054 5.53508 17.9383C5.69863 18.234 5.91908 18.4945 6.18373 18.7048C6.44838 18.915 6.752 19.0708 7.07711 19.1632C7.40223 19.2556 7.7424 19.2828 8.07806 19.2432C8.41372 19.2036 8.73823 19.0979 9.0329 18.9324C9.07783 18.3263 9.33918 17.7565 9.76928 17.3271C7.15512 17.0325 4.35687 16.0016 4.35687 11.4066C4.33751 10.2143 4.78092 9.06084 5.59399 8.18856C5.22535 7.15458 5.26753 6.01856 5.71181 5.01476C5.71181 5.01476 6.71329 4.69075 9.0108 6.24452C10.9749 5.70447 13.0483 5.70447 15.0123 6.24452C17.3025 4.69075 18.3481 5.01476 18.3481 5.01476C18.7924 6.01856 18.8346 7.15458 18.4659 8.18856C19.2603 9.0693 19.6872 10.2208 19.6589 11.4066C19.6589 16.0163 16.8606 17.0251 14.1876 17.2976C14.4709 17.5878 14.6896 17.9346 14.8292 18.3154C14.9688 18.6962 15.0262 19.1022 14.9976 19.5068C14.9976 21.1121 14.9976 22.4081 14.9976 22.7984C14.9976 23.1887 15.2185 23.4979 15.8223 23.3801C18.5192 22.4733 20.8063 20.638 22.2756 18.2016C23.7449 15.7651 24.3009 12.8859 23.8445 10.0775C23.3881 7.26915 21.9489 4.71422 19.7836 2.86845C17.6184 1.02267 14.8678 0.00608123 12.0226 0L12.0079 0.0368192Z" fill="white"/>
</svg>
