<svg width="578" height="446" viewBox="0 0 578 446" fill="none" xmlns="http://www.w3.org/2000/svg">
    <path d="M472.922 224.587C475.558 223.065 478.928 223.968 480.45 226.604C481.972 229.24 481.069 232.611 478.433 234.133L407.37 275.161C404.734 276.683 401.364 275.78 399.842 273.144C398.32 270.508 399.223 267.137 401.859 265.615L472.922 224.587Z" fill="url(#paint0_linear)"/>
    <path d="M173.05 224.587C170.414 223.065 167.044 223.968 165.522 226.604C164 229.24 164.903 232.611 167.539 234.133L238.602 275.161C241.238 276.683 244.608 275.779 246.13 273.144C247.652 270.508 246.749 267.137 244.113 265.615L173.05 224.587Z" fill="url(#paint1_linear)"/>
    <path d="M315.643 122.511C315.643 119.467 318.11 117 321.154 117C324.198 117 326.665 119.467 326.665 122.511V204.567C326.665 207.611 324.198 210.079 321.154 210.079C318.11 210.079 315.643 207.611 315.643 204.567V122.511Z" fill="url(#paint2_linear)"/>
    <path opacity="0.5" d="M430.462 287.071C430.462 284.584 432.479 282.567 434.966 282.567H452.29C454.777 282.567 456.794 284.584 456.794 287.071V304.395C456.794 306.882 454.777 308.899 452.29 308.899H434.966C432.479 308.899 430.462 306.882 430.462 304.395V287.071Z" fill="url(#paint3_linear)"/>
    <path opacity="0.5" d="M494.76 354.488C494.76 352.983 495.979 351.764 497.483 351.764H507.958C509.462 351.764 510.681 352.983 510.681 354.488V364.962C510.681 366.466 509.462 367.686 507.958 367.686H497.483C495.979 367.686 494.76 366.466 494.76 364.962V354.488Z" fill="url(#paint4_linear)"/>
    <path opacity="0.5" d="M513.131 371.408C513.131 370.367 513.975 369.522 515.016 369.522H522.268C523.309 369.522 524.153 370.367 524.153 371.408V378.66C524.153 379.701 523.309 380.545 522.268 380.545H515.016C513.975 380.545 513.131 379.701 513.131 378.66V371.408Z" fill="url(#paint5_linear)"/>
    <rect x="262.063" y="300.938" width="121.86" height="112.062" rx="19" fill="#5749D8"/>
    <path d="M320.85 225.618C299.205 225.618 281.659 243.164 281.659 264.809V300.938H297.58V265.421C297.58 251.893 308.547 240.927 322.075 240.927H323.299C336.827 240.927 347.794 251.893 347.794 265.421V300.938H363.715V264.809C363.715 243.164 346.169 225.618 324.524 225.618H320.85Z" fill="#42389D"/>
    <circle cx="377.358" cy="303.576" r="23.5758" fill="url(#paint6_linear)"/>
    <path d="M366.948 303.576L373.684 310.312L388.993 295.003" stroke="#212121" stroke-width="5" stroke-linecap="round" stroke-linejoin="round"/>
    <path fill-rule="evenodd" clip-rule="evenodd" d="M331.899 352.636C336.315 349.668 339.221 344.626 339.221 338.905C339.221 329.773 331.818 322.371 322.687 322.371C313.556 322.371 306.153 329.773 306.153 338.905C306.153 344.87 309.312 350.097 314.049 353.005L311.581 376.864C310.97 382.763 315.598 387.893 321.527 387.893H324.459C330.388 387.893 335.016 382.763 334.405 376.864L331.899 352.636Z" fill="#42389D"/>
    <circle cx="146.03" cy="282.247" r="12.2472" fill="url(#paint7_linear)"/>
    <path opacity="0.5" d="M104.884 356.376C104.884 351.98 108.448 348.416 112.844 348.416H143.462C147.859 348.416 151.423 351.98 151.423 356.376V386.994C151.423 391.391 147.859 394.955 143.462 394.955H112.844C108.448 394.955 104.884 391.391 104.884 386.994V356.376Z" fill="url(#paint8_linear)"/>
    <path opacity="0.5" d="M378.782 392.118C378.782 385.978 383.76 381 389.901 381H432.664C438.805 381 443.782 385.978 443.782 392.118V434.882C443.782 441.022 438.805 446 432.664 446H389.901C383.76 446 378.782 441.022 378.782 434.882V392.118Z" fill="url(#paint9_linear)"/>
    <path opacity="0.5" d="M193.782 9.06579C193.782 4.05889 197.841 0 202.848 0H237.717C242.724 0 246.782 4.05889 246.782 9.06579V43.9342C246.782 48.9411 242.724 53 237.717 53H202.848C197.841 53 193.782 48.9411 193.782 43.9342V9.06579Z" fill="url(#paint10_linear)"/>
    <path d="M69.979 151.558C69.979 149.013 72.0424 146.949 74.5878 146.949H92.314C94.8594 146.949 96.9228 149.013 96.9228 151.558V169.284C96.9228 171.83 94.8594 173.893 92.314 173.893H74.5878C72.0424 173.893 69.979 171.83 69.979 169.284V151.558Z" fill="url(#paint11_linear)"/>
    <path opacity="0.3" d="M58.3442 135.468C58.3442 134.369 59.2353 133.478 60.3344 133.478H67.9889C69.088 133.478 69.9791 134.369 69.9791 135.468V143.122C69.9791 144.221 69.088 145.112 67.9889 145.112H60.3344C59.2353 145.112 58.3442 144.221 58.3442 143.122V135.468Z" fill="#5E2BF6"/>
    <path d="M232.867 161.034C232.867 166.107 228.754 170.219 223.681 170.219C220.582 170.219 217.841 168.684 216.177 166.332C215.743 165.719 214.989 165.373 214.266 165.578C211.593 166.334 207.73 167.477 202.978 169.018C193.474 172.1 180.419 176.776 166.223 183.149C137.789 195.913 104.938 215.414 86.7294 242.424L86.7188 242.44L86.7077 242.455C69.3328 266.231 62.2001 285.544 59.3993 298.867C57.9985 305.531 57.6798 310.702 57.708 314.192C57.7189 315.554 58.8518 316.583 60.1108 317.103C62.6681 318.159 64.4678 320.677 64.4678 323.615C64.4678 327.504 61.3149 330.657 57.4257 330.657C53.5364 330.657 50.3835 327.504 50.3835 323.615C50.3835 321.193 51.6068 319.056 53.4693 317.789C54.6903 316.958 55.7199 315.685 55.708 314.208C55.6788 310.58 56.0107 305.264 57.4421 298.456C60.3049 284.838 67.5602 265.271 85.0818 241.29C103.617 213.808 136.893 194.123 165.404 181.324C179.682 174.915 192.806 170.214 202.361 167.115C207.139 165.566 211.027 164.416 213.721 163.654C214.315 163.486 214.659 162.875 214.577 162.264C214.524 161.861 214.496 161.451 214.496 161.034C214.496 155.961 218.608 151.848 223.681 151.848C228.754 151.848 232.867 155.961 232.867 161.034Z" fill="url(#paint12_linear)"/>
    <circle cx="157.853" cy="158.278" r="6.42978" fill="url(#paint13_linear)"/>
    <path d="M92.6364 193.795C92.6364 196.332 90.5801 198.388 88.0437 198.388C86.3639 198.388 84.8948 197.486 84.094 196.14L84.0566 196.151C83.6731 196.266 83.1053 196.442 82.3761 196.684C80.9176 197.168 78.8142 197.916 76.2489 198.968C71.1168 201.074 64.1451 204.394 56.7928 209.25C42.0834 218.964 25.9143 234.777 19.8174 259.253C12.3979 289.038 23.5003 319.909 36.5911 343.452C43.1256 355.204 50.1299 365.084 55.5012 372.026C58.1862 375.496 60.4616 378.23 62.064 380.094C62.8651 381.026 63.4979 381.741 63.9293 382.222C63.9359 382.229 63.9424 382.236 63.9489 382.243C64.7821 381.396 65.9414 380.871 67.2233 380.871C69.7598 380.871 71.816 382.927 71.816 385.464C71.816 388 69.7598 390.056 67.2233 390.056C64.6869 390.056 62.6306 388 62.6306 385.464C62.6306 384.96 62.7117 384.476 62.8614 384.022C62.753 383.904 62.6123 383.748 62.4411 383.558C62.0005 383.067 61.3582 382.341 60.5471 381.398C58.9251 379.51 56.6278 376.75 53.9194 373.249C48.5039 366.251 41.4388 356.286 34.8431 344.424C21.6732 320.739 10.2712 289.302 17.8767 258.77C24.1352 233.645 40.7275 217.462 55.6907 207.581C63.1747 202.638 70.267 199.261 75.4898 197.118C78.102 196.046 80.2489 195.283 81.7463 194.786C82.4883 194.54 83.0711 194.359 83.4721 194.239C83.4581 194.093 83.451 193.945 83.451 193.795C83.451 191.259 85.5072 189.202 88.0437 189.202C90.5801 189.202 92.6364 191.259 92.6364 193.795Z" fill="url(#paint14_linear)"/>
    <path d="M52.2206 193.795C52.2206 196.332 50.1643 198.388 47.6279 198.388C46.3553 198.388 45.2035 197.87 44.3718 197.034C44.0572 196.718 43.5553 196.626 43.1965 196.891C42.5318 197.382 41.5715 198.102 40.3938 199.018C38.0377 200.849 34.8148 203.458 31.3484 206.565C24.3868 212.807 16.5523 220.966 12.703 228.833L12.6943 228.851L12.6848 228.868C7.58135 238.325 5.9116 249.253 5.53204 257.869C5.34264 262.168 5.47528 265.871 5.65506 268.497C5.74492 269.809 5.84648 270.851 5.92522 271.563C5.96459 271.919 5.99824 272.192 6.02187 272.375C6.03388 272.468 6.10676 272.54 6.19898 272.557C8.34232 272.945 9.96786 274.821 9.96786 277.076C9.96786 279.613 7.91164 281.669 5.37517 281.669C2.83869 281.669 0.782471 279.613 0.782471 277.076C0.782471 275.019 2.1344 273.278 3.99809 272.693C4.02484 272.685 4.04195 272.659 4.03836 272.631C4.01324 272.437 3.97812 272.151 3.93736 271.783C3.85583 271.046 3.75167 269.976 3.65973 268.633C3.47592 265.949 3.34065 262.169 3.53397 257.781C3.91963 249.026 5.61607 237.765 10.9153 227.936C14.9482 219.705 23.0284 211.338 30.0133 205.076C33.5226 201.93 36.7831 199.291 39.1664 197.439C40.3583 196.512 41.3318 195.782 42.0083 195.282C42.3466 195.032 42.6107 194.84 42.7909 194.71C42.8809 194.645 42.95 194.595 42.9969 194.562L43.0504 194.523L43.0644 194.514L43.0692 194.51C43.0787 194.504 43.091 194.513 43.0892 194.502C43.0536 194.271 43.0352 194.035 43.0352 193.795C43.0352 191.259 45.0914 189.202 47.6279 189.202C50.1643 189.202 52.2206 191.259 52.2206 193.795Z" fill="url(#paint15_linear)"/>
    <path d="M286.754 95.2051C286.754 98.0797 284.424 100.41 281.549 100.41C280.776 100.41 280.043 100.242 279.383 99.9393C277.336 99.0012 275.412 97.3549 273.16 97.3437C269.565 97.3258 264.381 97.4139 258.033 97.8384C245.336 98.6874 227.997 100.882 209.423 106.259C172.272 117.016 130.267 140.478 110.481 191.311L110.477 191.324L110.471 191.337C91.7695 234.67 104.214 284.938 121.454 324.502C130.066 344.264 139.853 361.309 147.489 373.414C151.306 379.466 154.584 384.282 156.907 387.583C157.093 387.847 157.274 388.102 157.447 388.347C158.555 389.91 160.836 390.056 162.751 390.056C165.626 390.056 167.956 392.387 167.956 395.261C167.956 398.136 165.626 400.467 162.751 400.467C159.877 400.467 157.546 398.136 157.546 395.261C157.546 394.195 157.867 393.204 158.417 392.379C158.443 392.34 158.442 392.289 158.414 392.252C157.777 391.386 156.848 390.105 155.681 388.446C153.345 385.127 150.052 380.29 146.22 374.215C138.556 362.065 128.729 344.951 120.079 325.101C102.799 285.446 90.1379 234.68 109.089 190.755C129.108 139.334 171.606 115.647 209.006 104.818C227.71 99.4031 245.16 97.1959 257.933 96.3417C264.321 95.9146 269.541 95.8257 273.168 95.8437C274.126 95.8485 274.972 95.8607 275.7 95.8761C276.062 95.8838 276.344 95.5669 276.344 95.2051C276.344 92.3304 278.675 90 281.549 90C284.424 90 286.754 92.3304 286.754 95.2051Z" fill="url(#paint16_linear)"/>
    <path d="M353.193 197.418C353.193 197.07 353.41 196.748 353.748 196.665C354.422 196.5 355.244 196.303 356.204 196.08C359.208 195.384 363.559 194.442 368.943 193.459C379.711 191.492 394.601 189.361 411.091 188.704C444.118 187.388 483.349 191.995 508.837 215.423C526.428 231.592 531.103 248.842 531.405 262.034C531.556 268.64 530.611 274.238 529.628 278.181C529.137 280.152 528.637 281.708 528.262 282.768C528.074 283.298 527.917 283.704 527.809 283.975C527.803 283.989 527.797 284.003 527.792 284.016C527.779 284.047 527.749 284.067 527.715 284.067C525.01 284.067 522.816 286.261 522.816 288.966C522.816 291.672 525.01 293.865 527.715 293.865C530.421 293.865 532.614 291.672 532.614 288.966C532.614 287.209 531.689 285.668 530.299 284.803C529.779 284.48 529.471 283.847 529.676 283.269C530.065 282.169 530.58 280.567 531.084 278.544C532.091 274.499 533.06 268.766 532.905 262C532.594 248.449 527.778 230.795 509.852 214.318C483.902 190.465 444.139 185.886 411.031 187.205C394.453 187.866 379.49 190.007 368.673 191.983C363.264 192.971 358.889 193.919 355.865 194.619C354.077 195.033 352.283 193.955 350.723 192.989C349.928 192.497 348.991 192.213 347.988 192.213C345.113 192.213 342.782 194.544 342.782 197.418C342.782 200.293 345.113 202.623 347.988 202.623C350.862 202.623 353.193 200.293 353.193 197.418Z" fill="url(#paint17_linear)"/>
    <path d="M429.238 128.559C429.238 128.828 429.217 129.093 429.178 129.351C429.171 129.395 429.196 129.438 429.238 129.452C429.831 129.657 430.705 129.964 431.831 130.371C434.085 131.183 437.349 132.395 441.402 133.992C449.506 137.185 460.764 141.923 473.384 148.098C498.605 160.441 529.35 178.568 551.211 201.661L551.235 201.687L551.258 201.714C578.09 234.406 580.61 263.8 576.342 285.061C574.213 295.67 570.399 304.226 567.118 310.131C565.476 313.085 563.966 315.378 562.863 316.937C562.309 317.721 562.473 318.798 563.066 319.553C564.008 320.75 564.569 322.26 564.569 323.902C564.569 327.791 561.416 330.944 557.527 330.944C553.638 330.944 550.485 327.791 550.485 323.902C550.485 320.012 553.638 316.86 557.527 316.86C557.758 316.86 557.986 316.871 558.211 316.892C559.351 317.002 560.569 316.717 561.23 315.782C562.297 314.275 563.767 312.043 565.369 309.16C568.575 303.392 572.301 295.031 574.381 284.667C578.533 263.987 576.156 235.217 549.734 203.01C528.12 180.188 497.642 162.196 472.505 149.895C459.942 143.747 448.734 139.031 440.669 135.852C436.636 134.263 433.389 133.059 431.153 132.252C430.035 131.849 429.169 131.545 428.583 131.342C428.511 131.317 428.43 131.346 428.388 131.41C427.458 132.828 425.855 133.764 424.032 133.764C421.158 133.764 418.827 131.434 418.827 128.559C418.827 125.684 421.158 123.354 424.032 123.354C426.907 123.354 429.238 125.684 429.238 128.559Z" fill="url(#paint18_linear)"/>
    <path d="M418.366 54.2865C418.366 56.6539 416.447 58.573 414.08 58.573C411.713 58.573 409.793 56.6539 409.793 54.2865C409.793 51.9191 411.713 50 414.08 50C416.447 50 418.366 51.9191 418.366 54.2865Z" fill="url(#paint19_linear)"/>
    <path d="M470.644 97.5431C496.881 124.087 523.218 162.387 523.218 209.214V209.229L523.217 209.245C520.752 268.104 479.225 307.252 438.5 331.64C418.125 343.842 397.909 352.377 382.79 357.861C375.229 360.603 368.94 362.584 364.539 363.879C362.338 364.527 360.61 365.004 359.43 365.318C358.787 365.49 358.351 366.065 358.144 366.698C357.584 368.413 355.971 369.652 354.069 369.652C351.702 369.652 349.782 367.733 349.782 365.365C349.782 362.998 351.702 361.079 354.069 361.079C355.675 361.079 357.074 361.962 357.809 363.268C358.057 363.711 358.553 364 359.043 363.869C360.211 363.557 361.928 363.084 364.115 362.44C368.491 361.152 374.75 359.181 382.278 356.451C397.337 350.989 417.46 342.492 437.73 330.353C478.293 306.061 519.277 267.291 521.718 209.198C521.712 162.953 495.694 125.02 469.578 98.5976C456.526 85.393 443.471 75.0866 433.679 68.0815C428.784 64.5794 424.706 61.9037 421.853 60.1045C420.427 59.205 419.308 58.5247 418.546 58.0699C418.165 57.8425 417.873 57.6715 417.678 57.5576C417.58 57.5007 417.506 57.4581 417.457 57.4299L417.401 57.3983C417.39 57.392 417.388 57.3834 417.394 57.3723C417.416 57.3325 417.493 57.1971 417.754 56.7361C418.027 56.2559 418.099 56.1297 418.119 56.0965C418.123 56.0885 418.13 56.087 418.138 56.0916L418.145 56.0956L418.204 56.1291C418.255 56.1587 418.331 56.2027 418.432 56.261C418.632 56.3776 418.929 56.5515 419.315 56.7819C420.086 57.2426 421.217 57.9294 422.654 58.8358C425.528 60.6487 429.63 63.3406 434.552 66.8615C444.394 73.9025 457.518 84.2632 470.644 97.5431Z" fill="url(#paint20_linear)"/>
    <circle cx="552.934" cy="157.646" r="7.34831" fill="url(#paint21_linear)"/>
    <circle cx="375.723" cy="77.941" r="11.941" fill="url(#paint22_linear)"/>
    <path d="M206.639 334.171L213.585 336.246L208.927 342.659L208.634 343.063L209.037 343.357L212.191 345.659L212.621 345.973L212.907 345.525L217.03 339.071L221.302 345.703L221.595 346.158L222.025 345.831L225.154 343.452L225.545 343.156L225.256 342.76L220.676 336.474L227.745 334.373L228.226 334.23L228.081 333.749L226.92 329.903L226.767 329.394L226.268 329.579L219.468 332.104L219.699 324.014L219.713 323.5H219.199H215.338H214.824L214.838 324.013L215.046 331.978L208.118 329.402L207.619 329.217L207.465 329.725L206.304 333.546L206.158 334.027L206.639 334.171Z" fill="#43E296" stroke="#43E296"/>
    <path d="M236.033 334.171L242.978 336.246L238.32 342.659L238.027 343.063L238.43 343.357L241.585 345.659L242.014 345.973L242.301 345.525L246.424 339.071L250.696 345.703L250.988 346.158L251.419 345.831L254.548 343.452L254.938 343.156L254.65 342.76L250.07 336.474L257.139 334.373L257.62 334.23L257.475 333.749L256.314 329.903L256.16 329.394L255.661 329.579L248.861 332.104L249.092 324.014L249.107 323.5H248.592H244.731H244.218L244.231 324.013L244.439 331.978L237.511 329.402L237.013 329.217L236.859 329.725L235.698 333.546L235.552 334.027L236.033 334.171Z" fill="#43E296" stroke="#43E296"/>
    <path d="M265.426 334.171L272.371 336.246L267.713 342.659L267.42 343.063L267.823 343.357L270.978 345.659L271.407 345.973L271.694 345.525L275.817 339.071L280.089 345.703L280.381 346.158L280.812 345.831L283.941 343.452L284.331 343.156L284.043 342.76L279.463 336.474L286.532 334.373L287.013 334.23L286.868 333.749L285.707 329.903L285.553 329.394L285.054 329.579L278.254 332.104L278.485 324.014L278.5 323.5H277.986H274.124H273.611L273.624 324.013L273.832 331.978L266.904 329.402L266.406 329.217L266.252 329.725L265.091 333.546L264.945 334.027L265.426 334.171Z" fill="#43E296" stroke="#43E296"/>
    <defs>
        <linearGradient id="paint0_linear" x1="313.215" y1="221.027" x2="313.484" y2="277.226" gradientUnits="userSpaceOnUse">
            <stop stop-color="#52EAFF"/>
            <stop offset="1" stop-color="#0042E9" stop-opacity="0"/>
        </linearGradient>
        <linearGradient id="paint1_linear" x1="313.215" y1="221.027" x2="313.484" y2="277.226" gradientUnits="userSpaceOnUse">
            <stop stop-color="#52EAFF"/>
            <stop offset="1" stop-color="#0042E9" stop-opacity="0"/>
        </linearGradient>
        <linearGradient id="paint2_linear" x1="320.813" y1="111.956" x2="344.071" y2="206.745" gradientUnits="userSpaceOnUse">
            <stop stop-color="#52EAFF"/>
            <stop offset="1" stop-color="#0042E9" stop-opacity="0"/>
        </linearGradient>
        <linearGradient id="paint3_linear" x1="456.997" y1="312.885" x2="424.747" y2="285.727" gradientUnits="userSpaceOnUse">
            <stop stop-color="#5E2BF6"/>
            <stop offset="1" stop-color="#5E2BF6" stop-opacity="0"/>
        </linearGradient>
        <linearGradient id="paint4_linear" x1="510.804" y1="370.096" x2="491.304" y2="353.675" gradientUnits="userSpaceOnUse">
            <stop stop-color="#5E2BF6"/>
            <stop offset="1" stop-color="#5E2BF6" stop-opacity="0"/>
        </linearGradient>
        <linearGradient id="paint5_linear" x1="524.238" y1="382.213" x2="510.738" y2="370.845" gradientUnits="userSpaceOnUse">
            <stop stop-color="#5E2BF6"/>
            <stop offset="1" stop-color="#5E2BF6" stop-opacity="0"/>
        </linearGradient>
        <linearGradient id="paint6_linear" x1="391.323" y1="289.574" x2="355.537" y2="325.36" gradientUnits="userSpaceOnUse">
            <stop stop-color="#43E296"/>
            <stop offset="1" stop-color="#96E547"/>
        </linearGradient>
        <linearGradient id="paint7_linear" x1="143.282" y1="248.5" x2="146.041" y2="295.097" gradientUnits="userSpaceOnUse">
            <stop stop-color="#52EAFF"/>
            <stop offset="1" stop-color="#0042E9" stop-opacity="0"/>
        </linearGradient>
        <linearGradient id="paint8_linear" x1="151.782" y1="402" x2="94.7825" y2="354" gradientUnits="userSpaceOnUse">
            <stop stop-color="#5E2BF6"/>
            <stop offset="1" stop-color="#5E2BF6" stop-opacity="0"/>
        </linearGradient>
        <linearGradient id="paint9_linear" x1="444.285" y1="455.839" x2="364.675" y2="388.799" gradientUnits="userSpaceOnUse">
            <stop stop-color="#5E2BF6"/>
            <stop offset="1" stop-color="#5E2BF6" stop-opacity="0"/>
        </linearGradient>
        <linearGradient id="paint10_linear" x1="247.192" y1="61.0229" x2="182.279" y2="6.35944" gradientUnits="userSpaceOnUse">
            <stop stop-color="#5E2BF6"/>
            <stop offset="1" stop-color="#5E2BF6" stop-opacity="0"/>
        </linearGradient>
        <linearGradient id="paint11_linear" x1="107.782" y1="193" x2="64.131" y2="150.182" gradientUnits="userSpaceOnUse">
            <stop stop-color="#5E2BF6"/>
            <stop offset="1" stop-color="#5E2BF6" stop-opacity="0"/>
        </linearGradient>
        <linearGradient id="paint12_linear" x1="227.282" y1="161.5" x2="48.8595" y2="319.439" gradientUnits="userSpaceOnUse">
            <stop stop-color="#43E296"/>
            <stop offset="1" stop-color="#2A64F6" stop-opacity="0.2"/>
        </linearGradient>
        <linearGradient id="paint13_linear" x1="154.782" y1="141.5" x2="157.859" y2="165.024" gradientUnits="userSpaceOnUse">
            <stop stop-color="#52EAFF"/>
            <stop offset="1" stop-color="#0042E9" stop-opacity="0"/>
        </linearGradient>
        <linearGradient id="paint14_linear" x1="86.2825" y1="194.5" x2="171.014" y2="315.786" gradientUnits="userSpaceOnUse">
            <stop stop-color="#E54775" stop-opacity="0.1"/>
            <stop offset="1" stop-color="#FF7373"/>
        </linearGradient>
        <linearGradient id="paint15_linear" x1="-12.2175" y1="350" x2="108.664" y2="261.139" gradientUnits="userSpaceOnUse">
            <stop stop-color="#43E296"/>
            <stop offset="1" stop-color="#2A64F6" stop-opacity="0.2"/>
        </linearGradient>
        <linearGradient id="paint16_linear" x1="162.782" y1="400" x2="280.782" y2="98" gradientUnits="userSpaceOnUse">
            <stop stop-color="#E54775"/>
            <stop offset="1" stop-color="#47E5E5" stop-opacity="0.1"/>
        </linearGradient>
        <linearGradient id="paint17_linear" x1="526.878" y1="293.848" x2="374.653" y2="329.713" gradientUnits="userSpaceOnUse">
            <stop stop-color="#E54775"/>
            <stop offset="1" stop-color="#47E5E5" stop-opacity="0.2"/>
        </linearGradient>
        <linearGradient id="paint18_linear" x1="561.782" y1="323" x2="508.007" y2="105.548" gradientUnits="userSpaceOnUse">
            <stop stop-color="#2A64F6" stop-opacity="0.3"/>
            <stop offset="1" stop-color="#43E296"/>
        </linearGradient>
        <linearGradient id="paint19_linear" x1="412.782" y1="59" x2="228.173" y2="235.963" gradientUnits="userSpaceOnUse">
            <stop stop-color="#43E296"/>
            <stop offset="1" stop-color="#232F4D"/>
        </linearGradient>
        <linearGradient id="paint20_linear" x1="412.782" y1="59" x2="228.173" y2="235.963" gradientUnits="userSpaceOnUse">
            <stop stop-color="#43E296"/>
            <stop offset="1" stop-color="#232F4D"/>
        </linearGradient>
        <linearGradient id="paint21_linear" x1="551.286" y1="137.398" x2="552.941" y2="165.356" gradientUnits="userSpaceOnUse">
            <stop stop-color="#52EAFF"/>
            <stop offset="1" stop-color="#0042E9" stop-opacity="0"/>
        </linearGradient>
        <linearGradient id="paint22_linear" x1="373.045" y1="45.0375" x2="375.735" y2="90.4691" gradientUnits="userSpaceOnUse">
            <stop stop-color="#52EAFF"/>
            <stop offset="1" stop-color="#0042E9" stop-opacity="0"/>
        </linearGradient>
    </defs>
</svg>
