<svg xmlns="http://www.w3.org/2000/svg" xmlns:xlink="http://www.w3.org/1999/xlink" viewBox="0 0 430.07 301.54"><defs><style>.cls-1,.cls-18,.cls-21{fill:none;}.cls-2{fill:#84b290;}.cls-3{fill:#e57a82;}.cls-4{fill:#e0e0e0;}.cls-5{fill:#252728;}.cls-6{fill:#fc5b22;}.cls-7{fill:#d1a08a;}.cls-8{fill:#e5e16c;}.cls-9{fill:#b58a79;}.cls-10{fill:#e6a58d;}.cls-11{fill:#fc5454;}.cls-12{fill:#af826e;}.cls-13{fill:#292728;}.cls-14,.cls-16{fill:#9d6e67;}.cls-15{fill:#775c4d;}.cls-16{opacity:0.53;}.cls-17{fill:#ff7b7b;}.cls-18{stroke:#292728;}.cls-18,.cls-21{stroke-linecap:round;stroke-miterlimit:10;stroke-width:2px;}.cls-19{clip-path:url(#clip-path);}.cls-20{fill:#603b23;}.cls-21{stroke:#603b23;}.cls-22{fill:#ce8db7;}</style><clipPath id="clip-path" transform="translate(-19.93 -85.51)"><rect class="cls-1" x="47.1" y="148.13" width="202.77" height="250.36"/></clipPath></defs><g id="star"><path class="cls-2" d="M307.57,186.94l-21.07,4.81a18,18,0,0,0-12.67,10.85l-8,20.07a17.9,17.9,0,0,1-32,2.59l-11.06-18.54A17.88,17.88,0,0,0,208.55,198L187,196.67A17.88,17.88,0,0,1,174.69,167l14.24-16.27a17.93,17.93,0,0,0,3.89-16.21l-5.32-20.93a17.92,17.92,0,0,1,24.4-20.89l19.86,8.48a17.93,17.93,0,0,0,16.61-1.34l18.27-11.56A17.88,17.88,0,0,1,294,105l-2,21.51a17.86,17.86,0,0,0,6.38,15.38l16.61,13.78A17.91,17.91,0,0,1,307.57,186.94Z" transform="translate(-19.93 -85.51)"/></g><g id="hexagon"><path class="cls-3" d="M126,365.44,86.47,382.92a21.92,21.92,0,0,1-21.77-2.34L29.76,355.09a21.92,21.92,0,0,1-8.88-20l4.62-42.92a21.9,21.9,0,0,1,12.93-17.7L78,256.94a21.91,21.91,0,0,1,21.77,2.34l35,25.49a21.93,21.93,0,0,1,8.87,20.05L139,347.74A21.93,21.93,0,0,1,126,365.44Z" transform="translate(-19.93 -85.51)"/></g><g id="Layer_13" data-name="Layer 13"><path class="cls-4" d="M148.49,281.11s-9.73,70.58,1.83,83.21,3.25,5.46,3.25,5.46l48.07,4.58S175,267.79,181.38,261.66s-18.5,24.14-18.5,24.14Z" transform="translate(-19.93 -85.51)"/></g><g id="Layer_12" data-name="Layer 12"><path class="cls-5" d="M148.59,258.18l7.11,113.56L114.44,333.6s-17.14,4.47-19,4.21c0,0-14.47,5.52-18.94-3.69s-3.16-25.77-3.16-25.77,16,7.62,25.52-4.48Z" transform="translate(-19.93 -85.51)"/></g><g id="Layer_11" data-name="Layer 11"><path class="cls-6" d="M131.19,274.87" transform="translate(-19.93 -85.51)"/></g><g id="Layer_9" data-name="Layer 9"><path class="cls-7" d="M75.68,300.12l-2.5-1.64s5-29.94,6-31" transform="translate(-19.93 -85.51)"/></g><g id="Layer_8" data-name="Layer 8"><path class="cls-7" d="M79.23,267.53s-.26-7.85,3.29-10.74l12.23-19.47,10.79-2.63s4.34-2,7.36,0,11,6.71,11,6.71,2.37,3.95-1.84,3.55-9.6-5.58-10.92-5.55-2.1-.16-4.08,0l-5.52,1.34,6,.79s3.29.53,4.87,2.9a51.09,51.09,0,0,1,4.47,8.81c.39,1.44,2,4.34-3.55,1.44l-3.75-7.23s3.13,5.53,2.43,7.1c0,0-.52,1.58-2.43-.65s-2.7-2.11-2.7-2.11-9.2,9.73-12.23,10c0,0-3.16,3.42-4.47,3.68,0,0-.66,23.67,0,25.65s-12.89,10.12-12.89,10.12l-1.71-1.12" transform="translate(-19.93 -85.51)"/></g><g id="Layer_7" data-name="Layer 7"><path class="cls-4" d="M79.28,312.75c6.67.65,18.13,1,19.62-3.88l-5.46-20-17.76,6" transform="translate(-19.93 -85.51)"/></g><g id="Layer_6" data-name="Layer 6"><path class="cls-4" d="M75.68,294.88l-2.5.84s-2.87,13,0,16a59.31,59.31,0,0,0,6.07,1" transform="translate(-19.93 -85.51)"/></g><g id="Layer_5" data-name="Layer 5"><path class="cls-4" d="M145.39,274l-3.3,11.61-.26.91,17-2.95s.73-29.64-11.17-26.56C147.63,257,148,269.37,145.39,274Z" transform="translate(-19.93 -85.51)"/></g><g id="star2"><path class="cls-8" d="M80.66,219.51l-10.73.91a7.21,7.21,0,0,0-5.69,3.67L59,233.49a7.29,7.29,0,0,1-13.06-.79l-4.26-10a7.38,7.38,0,0,0-5.28-4.33l-10.57-2.2a7.35,7.35,0,0,1-3.4-12.7l8.1-7.08a7.28,7.28,0,0,0,2.42-6.34l-1.27-10.75a7.24,7.24,0,0,1,11-7.07l9.27,5.6a7.26,7.26,0,0,0,6.77.41l9.79-4.45a7.36,7.36,0,0,1,10.17,8.34l-2.37,10.53a7.41,7.41,0,0,0,1.77,6.6l7.32,8A7.29,7.29,0,0,1,80.66,219.51Z" transform="translate(-19.93 -85.51)"/></g><g id="Layer_3" data-name="Layer 3"><path class="cls-5" d="M211.83,236.4c-1.08-3.87-4.94-4.55-8.46-4.28a.07.07,0,0,0,0-.05s0,0,0,.05a26.71,26.71,0,0,0-5.33,1c-4.66.42-10.65.67-10.65.67s-11.23,52.6-11.32,51.91c0,0,9.8,79.19,25.61,91h0c.56.42,35.58-1.08,35.58-1.08C249.49,367.84,211.83,236.4,211.83,236.4Z" transform="translate(-19.93 -85.51)"/></g><g id="Layer_17" data-name="Layer 17"><polygon class="cls-9" points="111.27 149.39 144.17 144.81 134.18 174.79 113.03 174.79 111.27 149.39"/></g><g id="layers"><path class="cls-7" d="M169.37,208.43S156.6,188.1,146,184.3c-3-1.47-6.83-4.58-10.31-4.58-13,0-22.93,13.67-22.93,27.73a26.87,26.87,0,0,0,4.18,14.5c.22.34.45.67.68,1a64.81,64.81,0,0,0,7.77,13.11s8.34,6.45,18.8,4.68,12.63-2.87,19.14-6.91C169.33,230.09,171.34,223.62,169.37,208.43Z" transform="translate(-19.93 -85.51)"/><path class="cls-10" d="M442.5,328.76s-8.08,17.44-14.56,32c-2.77,6.21-5.24,11.87-6.65,15.44,0,0-20.57,2.24-20.63,2.42a.62.62,0,0,1,.06-.18c1.17-3.2,26-48.25,20.81-67.91,0,0,18.28,8.75,20.76,16.06A4.48,4.48,0,0,1,442.5,328.76Z" transform="translate(-19.93 -85.51)"/><path class="cls-11" d="M447.47,329.06a5.76,5.76,0,0,1-2.22-.76c-.85-.44-1.87-1.05-3-1.73-2.48-7.31-20.76-16.06-20.76-16.06,5.21,19.66-20.81,67.91-20.81,67.91l-41.25,4.49s-20.68-2.74-20.2-9.12-2.41-139.18-2.41-139.18L325.8,227.3s25.49-20.27,37-20.17,11.54,19.72,11.54,19.72l20.68-26,12,10.5,15.87,9.12s10.1,4.1,16.35,18.25,10.58,72.11,10.58,72.11S450.83,329.06,447.47,329.06Z" transform="translate(-19.93 -85.51)"/><path class="cls-11" d="M430.64,375.16l-9.35,1c1.41-3.57,3.88-9.23,6.65-15.44C429.4,369,430.64,375.16,430.64,375.16Z" transform="translate(-19.93 -85.51)"/><path class="cls-11" d="M381.11,196.28" transform="translate(-19.93 -85.51)"/><path class="cls-12" d="M387.9,191s2.59,13.69,5.47,16.43l-19.72,21.67-12.5-19,.24-6.05Z" transform="translate(-19.93 -85.51)"/><path class="cls-10" d="M348.89,148.82h32.7L397,171.18l.82,12.87L391.41,187s-5.42,25.28-30,17.07c0,0-14.42-6.84-12.5-23.73C348.89,180.3,344.56,148.82,348.89,148.82Z" transform="translate(-19.93 -85.51)"/><line class="cls-1" x1="371.52" y1="63.31" x2="372.24" y2="63.31"/><path class="cls-13" d="M345.52,144.25s-7.69,18.26,3.85,32.86c0,0-5.77-21,3.37-23.27l23.56-2.74s4.33,0,6.25,9.58a61.48,61.48,0,0,0,5.77,16.43l5.29-1.83s1.44-1.36,2.41,0,2.88,12.78-8.18,11.87l2.89,4.56s11.06,1.37,8.17-31C398.9,160.68,397.46,116.88,345.52,144.25Z" transform="translate(-19.93 -85.51)"/><path class="cls-7" d="M163.61,202.2a2.72,2.72,0,0,0-.39-.37c-1.19-1-5.22-4.21-4.54-7.83.16,0,1.55-5.62,4.39-5,2,.41,5.19,5.27,7,10.87a3.34,3.34,0,0,1-1.79,4.06h0a3.33,3.33,0,0,1-3.86-.82Z" transform="translate(-19.93 -85.51)"/><path class="cls-14" d="M274.88,166.84s3.54-5.78,3.91-2.42,0,13.8,0,13.8a2.26,2.26,0,0,1-3,1.5C273.57,179,274.88,166.84,274.88,166.84Z" transform="translate(-19.93 -85.51)"/><path class="cls-14" d="M226,169.81s-4.28-5.26-4.2-1.88,1.84,13.68,1.84,13.68a2.27,2.27,0,0,0,3.14,1.09C228.91,181.65,226,169.81,226,169.81Z" transform="translate(-19.93 -85.51)"/><path class="cls-8" d="M351.54,276c-.1-.05-.94-.52-2.29-1.14-6.17-2.82-23.19-8.8-31.65,6l5.22,22.39c-4.85,6.34-67.91,13.06-67.91,13.06-5.71-4.45-15.46-1.26-18.25-.21-.49.18-.76.3-.76.3l-.76-12s-23.88,2-32.68,8.45a8.35,8.35,0,0,0-2.77,3.11s-13.43-61.43-5.22-66.35c0,0,31.53-26.55,37.22-25.43l2.44-.84c-.24,1.12-.52,2.27-.86,3.45,0,0,31.66,34.63,49.57-20l3.79-1.28s16,4.46,25.74,6S329.16,205.83,337,229C344.77,251.92,351.44,275.61,351.54,276Z" transform="translate(-19.93 -85.51)"/><path class="cls-8" d="M282.84,206.74c-17.91,54.62-49.57,20-49.57,20,.34-1.18.62-2.33.86-3.45Z" transform="translate(-19.93 -85.51)"/><path class="cls-8" d="M353.79,387H240.36l-1.09-17.27L237.07,335c.58.24,1.16.45,1.73.63a28.8,28.8,0,0,0,6,1.21c21.64,6.34,91-2.24,91-2.24,3-.72,5.43-1.29,7.38-1.85Z" transform="translate(-19.93 -85.51)"/><path class="cls-15" d="M282.9,206.58l-.06.16c-17.91,54.62-49.57,20-49.57,20,.34-1.18.62-2.33.86-3.45,3.14-15-2.44-23-2.44-23l40.65-5.54C270.73,209.75,282.9,206.58,282.9,206.58Z" transform="translate(-19.93 -85.51)"/><path class="cls-14" d="M353.79,314.41c-2.41,13.55-2.39,15.92-10.53,18.3-1.95.56-4.36,1.13-7.38,1.85,0,0-69.4,8.58-91,2.24a28.8,28.8,0,0,1-6-1.21c-.57-.18-1.15-.39-1.73-.63-5.53-2.31-10.5-7.41-1.17-18.59,0,0,.27-.12.76-.3,2.79-1.05,12.54-4.24,18.25.21,0,0,63.06-6.72,67.91-13.06l-5.22-22.39c8.46-14.8,25.48-8.82,31.65-6l1.56,3.76S356.77,297.62,353.79,314.41Z" transform="translate(-19.93 -85.51)"/><path class="cls-14" d="M307.9,310.31s2.61-16.58,12.68-16.69l5.23,10Z" transform="translate(-19.93 -85.51)"/><path class="cls-14" d="M242.23,367a18,18,0,0,1-3,2.75c-3.79,2.85-10.71,5.78-17.65-2.75-8.46-10.4-16.53-42.86-19.16-54.23,8.8-6.46,32.68-8.45,32.68-8.45l.76,12c-9.33,11.18-4.36,16.28,1.17,18.59.58.24,1.16.45,1.73.63Z" transform="translate(-19.93 -85.51)"/><path class="cls-14" d="M294.84,335.45S254.65,371.06,237,367.39L234.77,332Z" transform="translate(-19.93 -85.51)"/><path class="cls-16" d="M261.92,132.3l8.47,7.38A30.25,30.25,0,0,0,261.92,132.3Z" transform="translate(-19.93 -85.51)"/><path class="cls-14" d="M264.62,143.8c-3.92-2.8-14.28-2.24-26-2s-11,14.56-11,14.56h-5.76a36.65,36.65,0,0,0,.57,3.63s3.92,15.11,3.92,24.35c0,0,1.4,21.83,20.15,26.58,0,0,12.31,1.68,16.79-1.4,0,0,8.67-5.31,12.59-28.82,0,0,.19-12.59,1.2-19H274.5C276,157.79,268.53,146.6,264.62,143.8Z" transform="translate(-19.93 -85.51)"/><path class="cls-13" d="M270.39,139.68l-8.47-7.38a35.49,35.49,0,0,0-11.3-4.17s-31.54,2.06-28.83,28.27h5.76s-.71-14.28,11-14.56,22.11-.84,26,2,11.37,14,9.88,17.91H277a13.78,13.78,0,0,1,.76-3.08A36.47,36.47,0,0,0,270.39,139.68Z" transform="translate(-19.93 -85.51)"/><ellipse class="cls-13" cx="262.74" cy="168.06" rx="5.75" ry="1.92" transform="translate(-49.86 -25.25) rotate(-12.38)"/><ellipse class="cls-13" cx="238.11" cy="167.59" rx="1.92" ry="5.75" transform="translate(3.43 278.72) rotate(-77.62)"/><circle class="cls-17" cx="215.37" cy="102.79" r="3.61"/><circle class="cls-17" cx="248.14" cy="101.09" r="3.61"/><path class="cls-18" d="M241.68,195.74c.36-.3,14.68,3.72,22.3-2.94" transform="translate(-19.93 -85.51)"/><path class="cls-18" d="M249.7,173.75s-4.49,7.32-3.74,10.93,9.89,0,9.89,0" transform="translate(-19.93 -85.51)"/><path class="cls-18" d="M255.85,161.71s6.06-3.26,10.3-1.4" transform="translate(-19.93 -85.51)"/><path class="cls-18" d="M243.72,161.71s-6.9-4.41-10.45-2" transform="translate(-19.93 -85.51)"/><path class="cls-18" d="M362.52,173.61s-3.91,6.38-3.26,9.53,8.62,0,8.62,0" transform="translate(-19.93 -85.51)"/><ellipse class="cls-13" cx="371.79" cy="169.96" rx="4.77" ry="1.8" transform="translate(-50.9 14.49) rotate(-14.71)"/><path class="cls-18" d="M366.12,164s5-3.08,8.48-1.32" transform="translate(-19.93 -85.51)"/><ellipse class="cls-13" cx="353.92" cy="171.69" rx="1.67" ry="4.39" transform="matrix(0.09, -1, 1, 0.09, 132.02, 423.75)"/><path class="cls-18" d="M358.14,165.34s-5-2-7.92.12" transform="translate(-19.93 -85.51)"/><circle class="cls-17" cx="333.99" cy="100.63" r="3.61"/><circle id="_2" data-name="2" class="cls-17" cx="359.73" cy="96.05" r="3.61"/><path id="_1" data-name="1" class="cls-18" d="M359.36,195.34c.36-.3,9.07,2.35,16.69-4.31" transform="translate(-19.93 -85.51)"/></g><g id="Layer_10" data-name="Layer 10"><g class="cls-19"><path class="cls-20" d="M179.72,207l-1.64-2.61a5.14,5.14,0,0,1-.41-.77c-1.56-3.67-13.87-31.71-25.37-33.47a5.58,5.58,0,0,1-1.44-.44c-2.24-1-8.85-4-13.63-4.14a21,21,0,0,0-9.85,1.52,23.16,23.16,0,0,0-8.5,4.62,12.17,12.17,0,0,0-3.53,3.5l-.18.24c-3.51,4.25-6.71,10.57-8,19.91,0,.11,0,.17,0,.17a28.56,28.56,0,0,0-.61,9.76c0,.18,0,.36,0,.54A102.55,102.55,0,0,0,108,221.32c8.09,49.13-.92,41.3-5.13,51.3s-3,29.42,4.24,33.64c3.13,1.8,8.21,4.81,13.15,7.57a5.61,5.61,0,0,0,8.09-6.53c-2.22-7.19-3.12-16.11,2-23.24,9.45-13.11,21.22-24.63,16.25-33.31-.7-1.22-6.91-13-8.26-13.42-4.62-1.41-18.9-7.27-16.75-25.67h0A5.71,5.71,0,0,1,122.7,209c.61-.81,1.2-1.68,1.77-2.58l2.65-4.68a103.85,103.85,0,0,0,6.17-15.54,5.61,5.61,0,0,1,10-1.38c6,8.95,13.87,18.43,22,21.16a5.62,5.62,0,0,1,3.78,6.4c-1.23,6.11-4.51,14.24-5.32,16.18a4.79,4.79,0,0,1-.4.78c-2,3.31-17.27,29-8.31,42.46a5.75,5.75,0,0,1,1,3.16,11.76,11.76,0,0,1-.65,3.81,5.61,5.61,0,0,0,8.21,6.72,48.11,48.11,0,0,0,12.89-12.22,5.14,5.14,0,0,0,.56-.92c2.34-4.76,19.77-42.18,2.89-65.05A2.23,2.23,0,0,1,179.72,207Z" transform="translate(-19.93 -85.51)"/><ellipse class="cls-20" cx="143.27" cy="198.24" rx="4.89" ry="1.82" transform="translate(-80.23 -22.86) rotate(-20.48)"/><ellipse class="cls-20" cx="124.17" cy="204.81" rx="4.89" ry="1.82" transform="translate(-83.73 -29.12) rotate(-20.48)"/><path class="cls-20" d="M134.37,196.54a.65.65,0,0,1-.33-1c1.47-2,5.68-7.29,8.67-7.29a29.34,29.34,0,0,1,3.25.19.65.65,0,0,1,0,1.29l-2.47.47a.64.64,0,0,0-.3.14l-7.35,6.36a.68.68,0,0,1-.63.13Z" transform="translate(-19.93 -85.51)"/><circle class="cls-17" cx="132.19" cy="122.15" r="3.63"/><circle class="cls-17" cx="106.36" cy="134.7" r="3.63"/><path class="cls-21" d="M134.89,228.66c.19-.44,13-.15,17-9.79" transform="translate(-19.93 -85.51)"/><path class="cls-21" d="M130.76,207.05s-.67,8.68.64,10.39,7-.52,7-.52" transform="translate(-19.93 -85.51)"/></g></g><g id="triangle"><path class="cls-22" d="M435.59,134.58,415,150.18a5.56,5.56,0,0,0,1,9.47l22,10.21a5.56,5.56,0,0,0,7.89-5.34l-1.38-25.81A5.56,5.56,0,0,0,435.59,134.58Z" transform="translate(-19.93 -85.51)"/></g></svg>