<?xml version="1.0" encoding="utf-8"?>
<!-- Generator: Adobe Illustrator 25.0.1, SVG Export Plug-In . SVG Version: 6.00 Build 0)  -->
<svg version="1.1" id="Layer_1" xmlns="http://www.w3.org/2000/svg" xmlns:xlink="http://www.w3.org/1999/xlink" x="0px" y="0px"
	 viewBox="0 0 500 500" style="enable-background:new 0 0 500 500;" xml:space="preserve">
<style type="text/css">
	.st0{fill:url(#SVGID_1_);}
	.st1{fill:url(#SVGID_2_);}
</style>
<linearGradient id="SVGID_1_" gradientUnits="userSpaceOnUse" x1="-0.275" y1="505.7999" x2="1.9551" y2="505.7999" gradientTransform="matrix(44.7233 23.1162 20.8548 -49.573 -10353.0674 25229.6387)">
	<stop  offset="0" style="stop-color:#41E296"/>
	<stop  offset="1" style="stop-color:#00C4EE"/>
</linearGradient>
<path class="st0" d="M194.24,214.03l55.02,30.5l55.03-30.5v-60.99l-55.03-30.49l-55.02,30.49L194.24,214.03z"/>
<g id="ade6090d-95d5-4936-8759-a1e22fa79ba5_6_" transform="matrix(5.369681729625583,0,0,5.369681729625583,16.187526087186676,162.64161960599898)">
	<path d="M13.35,26.05L13.35,26.05L13.35,26.05c1.32,0,2.39,0.33,3.19,1l0,0l0,0c0.81,0.66,1.36,1.52,1.66,2.59l0,0l-1.67,0.32l0,0
		c-0.26-0.77-0.67-1.38-1.22-1.83l0,0l0,0c-0.56-0.46-1.22-0.69-1.96-0.69l0,0l0,0c-1.04,0-1.9,0.44-2.59,1.31l0,0l0,0
		c-0.68,0.86-1.03,2.07-1.03,3.62l0,0l0,0c0,1.54,0.31,2.77,0.93,3.7l0,0l0,0c0.61,0.94,1.51,1.41,2.69,1.41l0,0l0,0
		c0.99,0,1.76-0.26,2.34-0.77l0,0l0,0c0.56-0.53,0.84-1.22,0.84-2.07l0,0h1.67l0,0c0,1.3-0.44,2.34-1.32,3.1l0,0l0,0
		c-0.89,0.76-2.11,1.14-3.65,1.14l0,0l0,0c-1.55,0-2.8-0.59-3.74-1.77l0,0l0,0c-0.96-1.18-1.44-2.76-1.44-4.74l0,0l0,0
		c0-1.99,0.49-3.54,1.48-4.64l0,0l0,0C10.52,26.6,11.79,26.05,13.35,26.05z M24.99,30.47L24.99,30.47L24.99,30.47
		c-1.5,0-2.28,1.17-2.32,3.52l0,0v4.58h-1.57v-9.44h1.57v1.81l0,0c0.47-1.31,1.31-1.97,2.52-1.97l0,0l0,0
		c0.38,0,0.74,0.06,1.09,0.18l0,0l-0.09,1.5l0,0C25.79,30.53,25.39,30.47,24.99,30.47z M31.88,37.35L31.88,37.35L31.88,37.35
		c1.27,0,1.99-0.56,2.16-1.67l0,0h1.56l0,0c-0.15,0.92-0.55,1.63-1.22,2.13l0,0l0,0c-0.67,0.5-1.51,0.75-2.5,0.75l0,0l0,0
		c-1.22,0-2.22-0.44-2.98-1.31l0,0l0,0c-0.77-0.88-1.15-2.04-1.15-3.49l0,0l0,0c0-1.46,0.38-2.62,1.15-3.49l0,0l0,0
		c0.77-0.87,1.81-1.3,3.09-1.3l0,0l0,0c1.28,0,2.23,0.5,2.87,1.49l0,0l0,0c0.63,0.99,0.85,2.21,0.66,3.64l0,0h-6.26l0,0
		c0,0.95,0.23,1.72,0.7,2.32l0,0l0,0C30.41,37.05,31.05,37.35,31.88,37.35z M33.03,30.44L33.03,30.44L33.03,30.44
		c-0.3-0.16-0.67-0.24-1.1-0.24l0,0l0,0c-0.81,0-1.44,0.27-1.9,0.82l0,0l0,0c-0.47,0.54-0.74,1.22-0.82,2.04l0,0h5.02l0,0
		C34.24,31.75,33.83,30.88,33.03,30.44z M44.68,33.66v-1.19l0,0c0-0.85-0.18-1.46-0.53-1.83l0,0l0,0c-0.36-0.37-0.89-0.56-1.57-0.56
		l0,0l0,0c-0.69,0-1.24,0.14-1.66,0.41l0,0l0,0c-0.43,0.27-0.64,0.69-0.64,1.26l0,0h-1.73l0,0c0-1.44,0.79-2.33,2.36-2.67l0,0l0,0
		c0.48-0.1,1-0.15,1.56-0.15l0,0l0,0c1.19,0,2.12,0.3,2.79,0.89l0,0l0,0c0.67,0.59,1,1.49,1,2.7l0,0v6.06h-1.37l-0.16-1.57l0,0
		c-0.58,1.19-1.64,1.78-3.17,1.78l0,0l0,0c-1.03,0-1.85-0.28-2.47-0.84l0,0l0,0c-0.62-0.56-0.93-1.26-0.93-2.11l0,0l0,0
		c0-0.83,0.34-1.49,1.03-1.97l0,0l0,0c0.69-0.47,1.54-0.7,2.57-0.7l0,0l0,0C42.77,33.16,43.75,33.32,44.68,33.66L44.68,33.66z
		 M44.61,34.67L44.61,34.67L44.61,34.67c-0.93-0.26-1.74-0.39-2.43-0.39l0,0l0,0c-0.69,0-1.26,0.13-1.7,0.38l0,0l0,0
		c-0.43,0.24-0.65,0.64-0.65,1.18l0,0l0,0c0,1.18,0.67,1.77,2.01,1.77l0,0l0,0c0.76,0,1.41-0.27,1.96-0.82l0,0l0,0
		C44.34,36.25,44.61,35.54,44.61,34.67z M54.55,37.29l0.22,1.1l0,0c-1.15,0.53-2.21,0.64-3.17,0.34l0,0l0,0
		c-0.68-0.21-1.17-0.65-1.46-1.32l0,0l0,0c-0.14-0.33-0.22-0.72-0.22-1.18v-0.08v-5.7h-1.57v-1.31h1.57v-2.62h1.57v2.62h2.88v1.31
		H51.5v5.77l0,0c0,0.96,0.46,1.44,1.37,1.44l0,0l0,0C53.37,37.65,53.93,37.53,54.55,37.29L54.55,37.29z M60.61,28.94L60.61,28.94
		L60.61,28.94c1.31,0,2.37,0.43,3.18,1.28l0,0l0,0C64.6,31.07,65,32.29,65,33.88l0,0l0,0c0,1.58-0.4,2.79-1.21,3.65l0,0l0,0
		c-0.81,0.85-1.87,1.28-3.18,1.28l0,0l0,0c-1.31,0-2.37-0.43-3.18-1.28l0,0l0,0c-0.81-0.85-1.21-2.07-1.21-3.65l0,0l0,0
		c0-1.59,0.4-2.81,1.21-3.66l0,0l0,0C58.24,29.37,59.3,28.94,60.61,28.94z M63.43,33.88L63.43,33.88L63.43,33.88
		c0-1.13-0.23-2.01-0.7-2.65l0,0l0,0c-0.47-0.64-1.16-0.96-2.08-0.96l0,0l0,0c-0.91,0-1.61,0.32-2.1,0.96l0,0l0,0
		c-0.49,0.64-0.73,1.52-0.73,2.65l0,0l0,0c0,1.12,0.23,1.99,0.69,2.63l0,0l0,0c0.46,0.64,1.15,0.96,2.07,0.96l0,0l0,0
		c0.91,0,1.61-0.32,2.11-0.96l0,0l0,0C63.18,35.87,63.43,35,63.43,33.88z M69.34,29.13l0.17,1.81l0,0c0.61-1.36,1.65-2.05,3.13-2.05
		l0,0l0,0c1.1,0,1.96,0.37,2.57,1.1l0,0l0,0c0.62,0.74,0.93,1.75,0.93,3.02l0,0v5.56h-1.31v-5.55l0,0c0-0.9-0.22-1.58-0.65-2.04l0,0
		l0,0c-0.44-0.46-1.06-0.69-1.87-0.69l0,0l0,0c-0.8,0-1.45,0.32-1.94,0.96l0,0l0,0c-0.5,0.65-0.76,1.54-0.79,2.69l0,0v4.63h-1.57
		v-9.44H69.34z"/>
</g>
<g>
	<linearGradient id="SVGID_2_" gradientUnits="userSpaceOnUse" x1="149.7837" y1="184.0589" x2="334.6749" y2="184.0589">
		<stop  offset="0" style="stop-color:#41E296"/>
		<stop  offset="1" style="stop-color:#00C4EE"/>
	</linearGradient>
	<path class="st1" d="M149.78,127.24v113.65l98.42,56.82l86.47-49.92l-12.3-21.11l-73.82,42.62l-73.82-42.62v-85.24l73.82-42.62
		l73.82,42.62v0c0.12-0.03,12.3-21.11,12.3-21.11L248.2,70.41L149.78,127.24z"/>
</g>
</svg>
