<?xml version="1.0" encoding="UTF-8" standalone="no"?>
<svg
   xmlns:dc="http://purl.org/dc/elements/1.1/"
   xmlns:cc="http://creativecommons.org/ns#"
   xmlns:rdf="http://www.w3.org/1999/02/22-rdf-syntax-ns#"
   xmlns:svg="http://www.w3.org/2000/svg"
   xmlns="http://www.w3.org/2000/svg"
   xmlns:sodipodi="http://sodipodi.sourceforge.net/DTD/sodipodi-0.dtd"
   xmlns:inkscape="http://www.inkscape.org/namespaces/inkscape"
   version="1.1"
   id="Layer_1"
   x="0px"
   y="0px"
   viewBox="0 0 273.38 270.09"
   xml:space="preserve"
   sodipodi:docname="logo-04.svg"
   width="273.38"
   height="270.09"
   inkscape:version="1.0.1 (3bc2e813f5, 2020-09-07)"><metadata
   id="metadata49"><rdf:RDF><cc:Work
       rdf:about=""><dc:format>image/svg+xml</dc:format><dc:type
         rdf:resource="http://purl.org/dc/dcmitype/StillImage" /><dc:title></dc:title></cc:Work></rdf:RDF></metadata><defs
   id="defs47" /><sodipodi:namedview
   pagecolor="#ffffff"
   bordercolor="#666666"
   borderopacity="1"
   objecttolerance="10"
   gridtolerance="10"
   guidetolerance="10"
   inkscape:pageopacity="0"
   inkscape:pageshadow="2"
   inkscape:window-width="1600"
   inkscape:window-height="837"
   id="namedview45"
   showgrid="false"
   inkscape:pagecheckerboard="true"
   fit-margin-top="0"
   fit-margin-left="0"
   fit-margin-right="0"
   fit-margin-bottom="0"
   inkscape:zoom="0.67"
   inkscape:cx="136.68"
   inkscape:cy="135.04"
   inkscape:window-x="2552"
   inkscape:window-y="537"
   inkscape:window-maximized="1"
   inkscape:current-layer="Layer_1" />
<style
   type="text/css"
   id="style2">
	.st0{fill:#42389D;}
	.st1{fill:#43E296;}
	.st2{fill:#FFFFFF;}
	.st3{opacity:0.3;fill:#42389D;}
	.st4{fill:#27B76F;}
	.st5{fill:#31317A;}
</style>

<g
   id="g42"
   transform="translate(-363.32,-364.96)">
	<g
   id="g22">
		<g
   id="g20">
			<path
   class="st2"
   d="m 363.32,613.88 c 0,-2.9 0.47,-5.64 1.41,-8.21 0.94,-2.57 2.3,-4.81 4.09,-6.72 1.78,-1.91 3.95,-3.43 6.49,-4.55 2.55,-1.12 5.45,-1.68 8.71,-1.68 2.14,0 4.1,0.19 5.88,0.57 1.78,0.38 3.51,0.93 5.19,1.64 l -2.37,9.09 c -1.07,-0.41 -2.24,-0.76 -3.51,-1.07 -1.27,-0.31 -2.7,-0.46 -4.28,-0.46 -3.36,0 -5.87,1.04 -7.52,3.13 -1.66,2.09 -2.48,4.84 -2.48,8.25 0,3.62 0.78,6.42 2.33,8.4 1.55,1.99 4.26,2.98 8.14,2.98 1.38,0 2.85,-0.13 4.43,-0.38 1.58,-0.25 3.03,-0.66 4.35,-1.22 l 1.6,9.32 c -1.32,0.56 -2.98,1.04 -4.97,1.45 -1.99,0.41 -4.18,0.61 -6.57,0.61 -3.67,0 -6.83,-0.55 -9.47,-1.64 -2.65,-1.09 -4.83,-2.58 -6.53,-4.47 -1.71,-1.88 -2.95,-4.11 -3.74,-6.68 -0.79,-2.56 -1.18,-5.35 -1.18,-8.36 z"
   id="path6" />
			<path
   class="st2"
   d="m 427.64,603.87 c -1.02,-0.25 -2.22,-0.52 -3.59,-0.8 -1.38,-0.28 -2.85,-0.42 -4.43,-0.42 -0.71,0 -1.57,0.06 -2.56,0.19 -0.99,0.13 -1.75,0.27 -2.25,0.42 v 30.71 h -11.38 v -38.05 c 2.04,-0.71 4.44,-1.39 7.22,-2.02 2.77,-0.64 5.87,-0.96 9.28,-0.96 0.61,0 1.35,0.04 2.22,0.11 0.87,0.08 1.73,0.18 2.6,0.31 0.87,0.13 1.73,0.28 2.6,0.46 0.87,0.18 1.6,0.4 2.22,0.65 z"
   id="path8" />
			<path
   class="st2"
   d="m 432.99,614.19 c 0,-3.56 0.55,-6.68 1.64,-9.36 1.09,-2.67 2.53,-4.9 4.32,-6.68 1.78,-1.78 3.83,-3.13 6.15,-4.05 2.32,-0.92 4.7,-1.38 7.14,-1.38 5.7,0 10.21,1.75 13.52,5.23 3.31,3.49 4.97,8.62 4.97,15.39 0,0.66 -0.03,1.39 -0.08,2.18 -0.05,0.79 -0.1,1.49 -0.15,2.1 h -25.82 c 0.25,2.34 1.35,4.2 3.29,5.58 1.93,1.38 4.53,2.06 7.79,2.06 2.09,0 4.14,-0.19 6.15,-0.57 2.01,-0.38 3.65,-0.85 4.93,-1.41 l 1.53,9.24 c -0.61,0.31 -1.43,0.61 -2.44,0.92 -1.02,0.31 -2.15,0.57 -3.4,0.8 -1.25,0.23 -2.59,0.42 -4.01,0.57 -1.43,0.15 -2.85,0.23 -4.28,0.23 -3.62,0 -6.76,-0.53 -9.44,-1.6 -2.67,-1.07 -4.89,-2.53 -6.65,-4.39 -1.76,-1.86 -3.06,-4.06 -3.9,-6.61 -0.84,-2.55 -1.26,-5.3 -1.26,-8.25 z m 26.74,-4.36 c -0.05,-0.97 -0.22,-1.91 -0.5,-2.83 -0.28,-0.92 -0.71,-1.73 -1.3,-2.44 -0.59,-0.71 -1.32,-1.3 -2.22,-1.76 -0.89,-0.46 -2,-0.69 -3.32,-0.69 -1.27,0 -2.37,0.22 -3.28,0.65 -0.92,0.43 -1.68,1.01 -2.29,1.72 -0.61,0.71 -1.08,1.54 -1.41,2.48 -0.33,0.94 -0.57,1.9 -0.73,2.86 h 15.05 z"
   id="path10" />
			<path
   class="st2"
   d="m 493.96,592.72 c 3.36,0 6.16,0.38 8.4,1.15 2.24,0.76 4.04,1.86 5.39,3.29 1.35,1.43 2.3,3.16 2.86,5.19 0.56,2.04 0.84,4.3 0.84,6.8 v 23.68 c -1.63,0.36 -3.9,0.78 -6.8,1.26 -2.9,0.48 -6.42,0.73 -10.54,0.73 -2.6,0 -4.95,-0.23 -7.07,-0.69 -2.11,-0.46 -3.93,-1.21 -5.46,-2.25 -1.53,-1.04 -2.7,-2.41 -3.51,-4.09 -0.82,-1.68 -1.22,-3.74 -1.22,-6.19 0,-2.34 0.47,-4.33 1.41,-5.96 0.94,-1.63 2.2,-2.93 3.78,-3.9 1.58,-0.97 3.39,-1.67 5.42,-2.1 2.04,-0.43 4.15,-0.65 6.34,-0.65 1.48,0 2.79,0.06 3.93,0.19 1.15,0.13 2.08,0.29 2.79,0.5 v -1.07 c 0,-1.94 -0.59,-3.49 -1.76,-4.66 -1.17,-1.17 -3.21,-1.76 -6.11,-1.76 -1.94,0 -3.85,0.14 -5.73,0.42 -1.89,0.28 -3.51,0.68 -4.89,1.18 l -1.45,-9.17 c 0.66,-0.2 1.49,-0.42 2.48,-0.65 0.99,-0.23 2.07,-0.43 3.25,-0.61 1.17,-0.18 2.41,-0.33 3.71,-0.46 1.3,-0.12 2.61,-0.18 3.94,-0.18 z m 0.92,33.31 c 1.12,0 2.19,-0.03 3.21,-0.08 1.02,-0.05 1.83,-0.13 2.45,-0.23 v -8.63 c -0.46,-0.1 -1.15,-0.2 -2.06,-0.31 -0.92,-0.1 -1.76,-0.15 -2.52,-0.15 -1.07,0 -2.08,0.06 -3.02,0.19 -0.94,0.13 -1.77,0.37 -2.48,0.73 -0.71,0.36 -1.27,0.84 -1.68,1.45 -0.41,0.61 -0.61,1.38 -0.61,2.29 0,1.78 0.6,3.02 1.8,3.71 1.17,0.69 2.82,1.03 4.91,1.03 z"
   id="path12" />
			<path
   class="st2"
   d="m 521.38,583.78 11.38,-1.83 v 11.84 h 13.68 v 9.47 h -13.68 v 14.13 c 0,2.39 0.42,4.31 1.26,5.73 0.84,1.43 2.53,2.14 5.08,2.14 1.22,0 2.48,-0.11 3.78,-0.34 1.3,-0.23 2.48,-0.55 3.55,-0.95 l 1.6,8.86 c -1.38,0.56 -2.9,1.04 -4.58,1.45 -1.68,0.41 -3.74,0.61 -6.19,0.61 -3.11,0 -5.68,-0.42 -7.72,-1.26 -2.04,-0.84 -3.67,-2.01 -4.89,-3.51 -1.22,-1.5 -2.08,-3.32 -2.56,-5.46 -0.48,-2.14 -0.73,-4.51 -0.73,-7.11 v -33.77 z"
   id="path14" />
			<path
   class="st2"
   d="m 593.21,613.81 c 0,3.16 -0.46,6.05 -1.38,8.67 -0.92,2.62 -2.24,4.86 -3.97,6.72 -1.73,1.86 -3.81,3.3 -6.23,4.32 -2.42,1.02 -5.13,1.53 -8.14,1.53 -2.95,0 -5.64,-0.51 -8.06,-1.53 -2.42,-1.02 -4.5,-2.46 -6.23,-4.32 -1.73,-1.86 -3.08,-4.1 -4.05,-6.72 -0.97,-2.62 -1.45,-5.51 -1.45,-8.67 0,-3.16 0.5,-6.04 1.49,-8.63 0.99,-2.6 2.37,-4.81 4.13,-6.65 1.76,-1.83 3.84,-3.26 6.26,-4.28 2.42,-1.02 5.05,-1.53 7.91,-1.53 2.9,0 5.56,0.51 7.98,1.53 2.42,1.02 4.49,2.44 6.23,4.28 1.73,1.83 3.08,4.05 4.05,6.65 0.98,2.59 1.46,5.47 1.46,8.63 z m -11.61,0 c 0,-3.51 -0.7,-6.28 -2.1,-8.29 -1.4,-2.01 -3.4,-3.02 -6,-3.02 -2.6,0 -4.61,1.01 -6.04,3.02 -1.43,2.01 -2.14,4.78 -2.14,8.29 0,3.51 0.71,6.3 2.14,8.37 1.43,2.06 3.44,3.09 6.04,3.09 2.6,0 4.6,-1.03 6,-3.09 1.4,-2.07 2.1,-4.86 2.1,-8.37 z"
   id="path16" />
			<path
   class="st2"
   d="m 602,595.16 c 1.93,-0.56 4.43,-1.08 7.49,-1.57 3.06,-0.48 6.26,-0.73 9.63,-0.73 3.41,0 6.25,0.45 8.52,1.34 2.27,0.89 4.06,2.15 5.39,3.78 1.32,1.63 2.27,3.57 2.83,5.81 0.56,2.24 0.84,4.74 0.84,7.49 v 22.69 h -11.4 v -21.32 c 0,-3.67 -0.48,-6.26 -1.45,-7.79 -0.97,-1.53 -2.78,-2.29 -5.42,-2.29 -0.82,0 -1.68,0.04 -2.6,0.11 -0.92,0.08 -1.73,0.17 -2.44,0.27 v 31.02 H 602 Z"
   id="path18" />
		</g>
	</g>
	<g
   id="g40">
		<path
   class="st1"
   d="m 519.43,406.91 -41.75,-41.95 65.27,0.09 42.07,41.94 v 0 c -18.12,18.12 -47.51,18.08 -65.59,-0.08 z"
   id="path24" />
		<path
   class="st2"
   d="m 510.34,520.16 -61.09,-61.09 93.71,-94.02 -65.27,-0.09 -62.06,62.06 v 64.08 l 61.91,61.86 h 65.67 l 40.02,-40.02 v 0 c -18.14,-18.14 -47.54,-18.14 -65.67,0 z"
   id="path26" />
		<path
   class="st2"
   d="m 517.63,512.86 -40.1,40.1 h 65.67 l 40.02,-40.02 -0.08,-0.08 c -18.08,-18.09 -47.41,-18.09 -65.51,0 z"
   id="path28" />
		<polygon
   class="st1"
   points="414.98,490.66 477.54,552.96 510.34,520.16 449.25,459.07 415.62,426.89 "
   id="polygon30" />
		<polygon
   class="st3"
   points="463.25,444.87 415.62,426.89 449.25,459.07 "
   id="polygon32" />
		<polygon
   class="st4"
   points="463.25,539.39 510.34,520.16 477.54,552.96 "
   id="polygon34" />
		
			<rect
   x="488.47"
   y="436.56"
   transform="matrix(0.7071,-0.7071,0.7071,0.7071,-174.8029,495.4296)"
   class="st1"
   width="44.330002"
   height="44.330002"
   id="rect36" />
		<polygon
   class="st4"
   points="521.08,407.69 542.95,365.05 510.39,397.73 "
   id="polygon38" />
	</g>
</g>
</svg>
