<svg data-v-fde0c5aa="" xmlns="http://www.w3.org/2000/svg" viewBox="0 0 300 300" class="iconAbove"><!----><defs data-v-fde0c5aa=""><!----></defs><rect data-v-fde0c5aa="" fill="transparent" x="0" y="0" width="300px" height="300px" class="logo-background-square"></rect><defs data-v-fde0c5aa=""><!----></defs><g data-v-fde0c5aa="" id="ade6090d-95d5-4936-8759-a1e22fa79ba5" fill="#000000" transform="matrix(5.369681729625583,0,0,5.369681729625583,16.187526087186676,162.64161960599898)"><path d="M4.47 3.88L4.47 3.88L4.47 3.88Q5.88 3.88 6.74 4.59L6.74 4.59L6.74 4.59Q7.60 5.29 7.92 6.43L7.92 6.43L6.73 6.66L6.73 6.66Q6.45 5.84 5.86 5.36L5.86 5.36L5.86 5.36Q5.26 4.87 4.47 4.87L4.47 4.87L4.47 4.87Q3.36 4.87 2.63 5.80L2.63 5.80L2.63 5.80Q1.90 6.72 1.90 8.37L1.90 8.37L1.90 8.37Q1.90 10.01 2.56 11.00L2.56 11.00L2.56 11.00Q3.21 12.00 4.47 12.00L4.47 12.00L4.47 12.00Q5.52 12.00 6.13 11.45L6.13 11.45L6.13 11.45Q6.73 10.89 6.73 9.98L6.73 9.98L7.92 9.98L7.92 9.98Q7.92 11.37 6.98 12.18L6.98 12.18L6.98 12.18Q6.03 12.99 4.39 12.99L4.39 12.99L4.39 12.99Q2.74 12.99 1.73 11.73L1.73 11.73L1.73 11.73Q0.71 10.47 0.71 8.36L0.71 8.36L0.71 8.36Q0.71 6.24 1.76 5.06L1.76 5.06L1.76 5.06Q2.81 3.88 4.47 3.88ZM12.73 7.08L12.73 7.08L12.73 7.08Q11.14 7.08 11.09 9.58L11.09 9.58L11.09 12.84L9.98 12.84L9.98 6.13L11.09 6.13L11.09 7.42L11.09 7.42Q11.59 6.02 12.87 6.02L12.87 6.02L12.87 6.02Q13.27 6.02 13.64 6.15L13.64 6.15L13.58 7.22L13.58 7.22Q13.16 7.08 12.73 7.08ZM17.64 12.10L17.64 12.10L17.64 12.10Q19.03 12.10 19.22 10.88L19.22 10.88L20.36 10.88L20.36 10.88Q20.20 11.89 19.47 12.44L19.47 12.44L19.47 12.44Q18.73 12.99 17.64 12.99L17.64 12.99L17.64 12.99Q16.30 12.99 15.46 12.03L15.46 12.03L15.46 12.03Q14.62 11.07 14.62 9.48L14.62 9.48L14.62 9.48Q14.62 7.88 15.46 6.93L15.46 6.93L15.46 6.93Q16.31 5.98 17.72 5.98L17.72 5.98L17.72 5.98Q19.12 5.98 19.82 7.07L19.82 7.07L19.82 7.07Q20.51 8.16 20.30 9.73L20.30 9.73L15.72 9.73L15.72 9.73Q15.72 10.77 16.23 11.43L16.23 11.43L16.23 11.43Q16.73 12.10 17.64 12.10ZM18.45 7.03L18.45 7.03L18.45 7.03Q18.13 6.86 17.67 6.86L17.67 6.86L17.67 6.86Q16.81 6.86 16.32 7.44L16.32 7.44L16.32 7.44Q15.82 8.02 15.74 8.89L15.74 8.89L19.31 8.89L19.31 8.89Q19.31 7.49 18.45 7.03ZM26.68 9.35L26.68 8.50L26.68 8.50Q26.68 7.59 26.31 7.20L26.31 7.20L26.31 7.20Q25.93 6.80 25.21 6.80L25.21 6.80L25.21 6.80Q24.49 6.80 24.05 7.09L24.05 7.09L24.05 7.09Q23.60 7.38 23.60 7.99L23.60 7.99L22.39 7.99L22.39 7.99Q22.39 6.45 24.04 6.09L24.04 6.09L24.04 6.09Q24.54 5.98 25.13 5.98L25.13 5.98L25.13 5.98Q26.38 5.98 27.08 6.61L27.08 6.61L27.08 6.61Q27.78 7.24 27.78 8.53L27.78 8.53L27.78 12.84L26.82 12.84L26.71 11.72L26.71 11.72Q26.10 12.99 24.49 12.99L24.49 12.99L24.49 12.99Q23.41 12.99 22.76 12.39L22.76 12.39L22.76 12.39Q22.11 11.79 22.11 10.89L22.11 10.89L22.11 10.89Q22.11 10.00 22.83 9.49L22.83 9.49L22.83 9.49Q23.55 8.99 24.63 8.99L24.63 8.99L24.63 8.99Q25.70 8.99 26.68 9.35L26.68 9.35ZM26.68 10.05L26.68 10.05L26.68 10.05Q25.69 9.77 24.95 9.77L24.95 9.77L24.95 9.77Q24.21 9.77 23.74 10.04L23.74 10.04L23.74 10.04Q23.28 10.30 23.28 10.88L23.28 10.88L23.28 10.88Q23.28 12.14 24.71 12.14L24.71 12.14L24.71 12.14Q25.52 12.14 26.10 11.56L26.10 11.56L26.10 11.56Q26.68 10.98 26.68 10.05ZM33.73 11.86L33.88 12.64L33.88 12.64Q32.68 13.20 31.68 12.88L31.68 12.88L31.68 12.88Q30.97 12.66 30.67 11.94L30.67 11.94L30.67 11.94Q30.52 11.59 30.52 11.10L30.52 11.10L30.52 6.99L29.44 6.99L29.44 6.15L30.52 6.15L30.52 4.28L31.61 4.28L31.61 6.15L33.71 6.15L33.71 6.99L31.61 6.99L31.61 11.09L31.61 11.09Q31.61 12.11 32.56 12.11L32.56 12.11L32.56 12.11Q33.08 12.11 33.73 11.86L33.73 11.86ZM38.05 5.98L38.05 5.98L38.05 5.98Q39.45 5.98 40.31 6.89L40.31 6.89L40.31 6.89Q41.17 7.80 41.17 9.49L41.17 9.49L41.17 9.49Q41.17 11.17 40.31 12.08L40.31 12.08L40.31 12.08Q39.45 12.99 38.05 12.99L38.05 12.99L38.05 12.99Q36.65 12.99 35.79 12.08L35.79 12.08L35.79 12.08Q34.93 11.17 34.93 9.49L34.93 9.49L34.93 9.49Q34.93 7.80 35.79 6.89L35.79 6.89L35.79 6.89Q36.65 5.98 38.05 5.98ZM40.05 9.49L40.05 9.49L40.05 9.49Q40.05 8.29 39.55 7.61L39.55 7.61L39.55 7.61Q39.05 6.93 38.07 6.93L38.07 6.93L38.07 6.93Q37.10 6.93 36.58 7.61L36.58 7.61L36.58 7.61Q36.06 8.29 36.06 9.49L36.06 9.49L36.06 9.49Q36.06 10.68 36.55 11.36L36.55 11.36L36.55 11.36Q37.04 12.04 38.02 12.04L38.02 12.04L38.02 12.04Q38.99 12.04 39.52 11.36L39.52 11.36L39.52 11.36Q40.05 10.68 40.05 9.49ZM44.23 6.15L44.35 7.43L44.35 7.43Q45.01 5.98 46.61 5.98L46.61 5.98L46.61 5.98Q47.80 5.98 48.46 6.76L48.46 6.76L48.46 6.76Q49.13 7.55 49.13 8.90L49.13 8.90L49.13 12.84L48.03 12.84L48.03 8.90L48.03 8.90Q48.03 7.94 47.58 7.45L47.58 7.45L47.58 7.45Q47.12 6.96 46.28 6.96L46.28 6.96L46.28 6.96Q45.44 6.96 44.93 7.64L44.93 7.64L44.93 7.64Q44.41 8.33 44.38 9.55L44.38 9.55L44.38 12.84L43.27 12.84L43.27 6.15L44.23 6.15Z"></path></g><defs data-v-fde0c5aa=""><linearGradient data-v-fde0c5aa="" gradientTransform="rotate(25)" id="9ea8ff86-3a2d-4276-8a76-bb577f2b9961" x1="0%" y1="0%" x2="100%" y2="0%"><stop data-v-fde0c5aa="" offset="0%" stop-color="#41E296" stop-opacity="1"></stop><stop data-v-fde0c5aa="" offset="100%" stop-color="#00C4EE" stop-opacity="1"></stop></linearGradient></defs><g data-v-fde0c5aa="" id="181583ce-fd42-4230-a46c-5194c143a238" stroke="none" fill="url(#9ea8ff86-3a2d-4276-8a76-bb577f2b9961)" transform="matrix(3.0594981664321943,0,0,3.0594981664321943,101.0480293370849,67.57204400562733)"><path d="M9.571 20.464l8.064 4.47 8.065-4.47v-8.939l-8.065-4.469-8.064 4.469z"></path><path d="M32 0H0v32h32l-5.054-5.172H5.054V5.172h21.892z"></path></g><!----></svg>