<svg width="487" height="392" viewBox="0 0 487 392" fill="none" xmlns="http://www.w3.org/2000/svg">
    <path d="M193.345 8.27877C198.54 -2.17019 213.21 -2.88069 219.395 7.01713L280.395 104.64C284.25 110.81 290.444 115.16 297.565 116.699L399.218 138.678C410.807 141.184 414.986 155.518 406.553 163.835L328.407 240.897C322.28 246.939 319.416 255.538 320.699 264.037L337.43 374.851C339.243 386.861 326.665 395.873 315.838 390.322L228.049 345.312C213.727 337.969 196.747 337.969 182.425 345.312L94.6357 390.322C83.8086 395.873 71.2309 386.861 73.0441 374.851L89.7748 264.037C91.058 255.538 88.1936 246.939 82.0668 240.897L4.44874 164.355C-4.09131 155.934 0.317832 141.41 12.1062 139.132L127.543 116.822C135.797 115.227 142.833 109.881 146.569 102.366L193.345 8.27877Z" fill="#EEF0F4"/>
    <rect x="170" y="78" width="200" height="200" rx="24" fill="#212121"/>
    <path d="M187 202.79C200.667 173.124 230.2 114.19 239 115.79C259 119.427 243 258.79 218 251.79C193 244.79 269 142.79 297 126.79C319.4 113.99 335 114.124 340 115.79" stroke="url(#paint0_linear)" stroke-width="6" stroke-linecap="round"/>
    <circle cx="96.6834" cy="274.683" r="64.6834" fill="url(#paint1_linear)"/>
    <path d="M119.089 323.783C137.705 315.274 150.64 296.489 150.64 274.683C150.64 244.884 126.483 220.726 96.6833 220.726C86.4593 220.726 76.8996 223.57 68.7517 228.509C75.5761 225.39 83.1638 223.652 91.1575 223.652C120.957 223.652 145.115 247.809 145.115 277.609C145.115 297.185 134.69 314.325 119.089 323.783Z" fill="#212121"/>
    <path d="M69.5198 227.715C51.7558 238.096 40.7063 258.185 42.898 279.994C45.8931 309.8 72.483 331.534 102.288 328.538C112.514 327.511 121.79 323.706 129.443 317.947C122.931 321.752 115.516 324.254 107.521 325.057C77.7157 328.052 51.1257 306.318 48.1306 276.513C46.1631 256.934 54.8668 238.742 69.5198 227.715Z" fill="white"/>
    <circle cx="172.76" cy="176.76" r="32.7599" fill="url(#paint2_linear)"/>
    <path d="M184.108 201.627C193.536 197.318 200.088 187.804 200.088 176.76C200.088 161.667 187.853 149.433 172.76 149.433C167.582 149.433 162.74 150.873 158.614 153.374C162.07 151.795 165.913 150.914 169.962 150.914C185.054 150.914 197.289 163.149 197.289 178.242C197.289 188.156 192.009 196.837 184.108 201.627Z" fill="#212121"/>
    <path d="M159.002 152.972C150.006 158.23 144.409 168.404 145.519 179.45C147.036 194.545 160.503 205.553 175.599 204.036C180.778 203.515 185.475 201.588 189.351 198.671C186.053 200.599 182.298 201.866 178.249 202.272C163.153 203.789 149.686 192.782 148.17 177.687C147.173 167.77 151.581 158.557 159.002 152.972Z" fill="white"/>
    <circle cx="466.124" cy="320.124" r="20.1243" fill="url(#paint3_linear)"/>
    <path d="M473.095 335.4C478.887 332.753 482.912 326.909 482.912 320.124C482.912 310.853 475.396 303.337 466.124 303.337C462.944 303.337 459.969 304.222 457.434 305.759C459.558 304.788 461.918 304.247 464.405 304.247C473.676 304.247 481.192 311.763 481.192 321.034C481.192 327.125 477.949 332.458 473.095 335.4Z" fill="#212121"/>
    <path d="M457.673 305.511C452.146 308.741 448.709 314.991 449.391 321.777C450.322 331.05 458.595 337.812 467.868 336.88C471.05 336.56 473.935 335.376 476.316 333.584C474.29 334.768 471.984 335.547 469.496 335.797C460.223 336.728 451.95 329.967 451.019 320.694C450.406 314.602 453.114 308.942 457.673 305.511Z" fill="white"/>
    <circle cx="410.692" cy="42.6921" r="32.6921" fill="url(#paint4_linear)"/>
    <path d="M422.016 67.5078C431.425 63.2073 437.963 53.7132 437.963 42.6921C437.963 27.6308 425.753 15.4213 410.692 15.4213C405.525 15.4213 400.693 16.8585 396.575 19.3549C400.024 17.7784 403.859 16.8998 407.899 16.8998C422.96 16.8998 435.17 29.1094 435.17 44.1706C435.17 54.0645 429.901 62.7278 422.016 67.5078Z" fill="#212121"/>
    <path d="M396.963 18.9534C387.985 24.2004 382.4 34.3533 383.508 45.3764C385.022 60.4405 398.461 71.4252 413.525 69.9114C418.693 69.392 423.381 67.4689 427.249 64.558C423.958 66.4816 420.21 67.7458 416.169 68.1519C401.105 69.6656 387.666 58.681 386.153 43.6169C385.158 33.7212 389.557 24.5267 396.963 18.9534Z" fill="white"/>
    <circle cx="332.5" cy="204.29" r="20.5" fill="url(#paint5_linear)"/>
    <defs>
        <linearGradient id="paint0_linear" x1="263.5" y1="115" x2="263.5" y2="252.045" gradientUnits="userSpaceOnUse">
            <stop stop-color="#E54775"/>
            <stop offset="1" stop-color="#47E5E5" stop-opacity="0.2"/>
        </linearGradient>
        <linearGradient id="paint1_linear" x1="134.998" y1="236.266" x2="36.8137" y2="334.451" gradientUnits="userSpaceOnUse">
            <stop stop-color="#43E296"/>
            <stop offset="1" stop-color="#96E547"/>
        </linearGradient>
        <linearGradient id="paint2_linear" x1="192.165" y1="157.303" x2="142.438" y2="207.03" gradientUnits="userSpaceOnUse">
            <stop stop-color="#43E296"/>
            <stop offset="1" stop-color="#96E547"/>
        </linearGradient>
        <linearGradient id="paint3_linear" x1="478.045" y1="308.172" x2="447.498" y2="338.719" gradientUnits="userSpaceOnUse">
            <stop stop-color="#43E296"/>
            <stop offset="1" stop-color="#96E547"/>
        </linearGradient>
        <linearGradient id="paint4_linear" x1="430.057" y1="23.2755" x2="380.433" y2="72.8996" gradientUnits="userSpaceOnUse">
            <stop stop-color="#43E296"/>
            <stop offset="1" stop-color="#96E547"/>
        </linearGradient>
        <linearGradient id="paint5_linear" x1="341.067" y1="190.346" x2="316.908" y2="219.917" gradientUnits="userSpaceOnUse">
            <stop stop-color="#E54775"/>
            <stop offset="1" stop-color="#FF7373"/>
        </linearGradient>
    </defs>
</svg>
