<svg xmlns="http://www.w3.org/2000/svg" enable-background="new 0 0 512 512" viewBox="0 0 512 512"><linearGradient id="a" x1="337.293" x2="156.183" y1="419.682" y2="105.99" gradientUnits="userSpaceOnUse"><stop offset="0" stop-color="#0065ff"/><stop offset=".047" stop-color="#0c5efe"/><stop offset=".295" stop-color="#473df6"/><stop offset=".523" stop-color="#7623f1"/><stop offset=".724" stop-color="#9810ec"/><stop offset=".89" stop-color="#ad04ea"/><stop offset="1" stop-color="#b400e9"/></linearGradient><path fill="url(#a)" d="M331.6,199v-74.1c0-21.9-9.8-58.6-75.6-58.6c-65.8,0-75.6,36.7-75.6,58.6V199c-35.8,24.3-59.4,65.3-59.4,111.8c0,74.4,60.6,135,135,135s135-60.6,135-135C391,264.3,367.4,223.3,331.6,199z M210.4,124.9c0-8.6,0-28.6,45.6-28.6c45.6,0,45.6,20.1,45.6,28.6v58.8c-14.3-5.1-29.6-7.9-45.6-7.9c-16,0-31.4,2.8-45.6,7.9V124.9z M256,415.8c-57.9,0-105-47.1-105-105s47.1-105,105-105s105,47.1,105,105S313.9,415.8,256,415.8z"/><linearGradient id="b" x1="337.293" x2="156.183" y1="419.682" y2="105.99" gradientUnits="userSpaceOnUse"><stop offset="0" stop-color="#0065ff"/><stop offset=".047" stop-color="#0c5efe"/><stop offset=".295" stop-color="#473df6"/><stop offset=".523" stop-color="#7623f1"/><stop offset=".724" stop-color="#9810ec"/><stop offset=".89" stop-color="#ad04ea"/><stop offset="1" stop-color="#b400e9"/></linearGradient><path fill="url(#b)" d="M256,246.5c-26.2,0-47.4,21.3-47.4,47.4c0,20.9,13.6,38.7,32.4,45v21c0,8.3,6.7,15,15,15s15-6.7,15-15v-21c18.8-6.3,32.5-24.1,32.5-45C303.4,267.8,282.2,246.5,256,246.5z M256,311.4c-9.6,0-17.4-7.8-17.4-17.5c0-9.6,7.8-17.4,17.4-17.4c9.6,0,17.5,7.8,17.5,17.4C273.4,303.6,265.6,311.4,256,311.4z"/></svg>