<svg version="1.2" baseProfile="tiny-ps" xmlns="http://www.w3.org/2000/svg" viewBox="0 0 400 200" width="180" height="70">
	<title>Creaton new logo-ai</title>
	<defs>
		<linearGradient id="grd1" gradientUnits="userSpaceOnUse"  x1="166.696" y1="153.348" x2="79.279" y2="196.092">
			<stop offset="0" stop-color="#63c88e"  />
			<stop offset="1" stop-color="#26359c"  />
		</linearGradient>
		<linearGradient id="grd2" gradientUnits="userSpaceOnUse"  x1="15" y1="72.359" x2="91.248" y2="72.359">
			<stop offset="0" stop-color="#63c88e"  />
			<stop offset="1" stop-color="#26359c"  />
		</linearGradient>
	</defs>
	<style>
		tspan { white-space:pre }
		.shp0 { fill: #43e296 } 
		.shp1 { fill: url(#grd1) } 
		.shp2 { fill: #FFFFFF } 
		.shp3 { fill: url(#grd2) } 
		.shp4 { fill: #42389d } 
	</style>
	<g id="Layer 1">
		<g id="&lt;Group&gt;">
			<g id="&lt;Group&gt;">
				<path id="&lt;Path&gt;" class="shp0" d="M98.52 58.38L65.14 24.84L117.33 24.91L150.97 58.44C136.47 72.93 112.97 72.91 98.52 58.38Z" />
				<path id="&lt;Path&gt;" class="shp1" d="M91.25 148.93L42.4 100.09L117.33 24.91L65.14 24.84L15.52 74.46L15.52 125.7L65.02 175.16L117.53 175.16L149.53 143.16C135.03 128.66 111.52 128.66 97.02 143.16L91.25 148.93Z" />
				<path id="&lt;Path&gt;" class="shp4" d="M97.08 143.1L65.02 175.16L117.53 175.16L149.53 143.16L149.47 143.1C135 128.64 111.55 128.64 97.08 143.1Z" />
				<path id="&lt;Path&gt;" class="shp3" d="M42.4 100.09L15.52 74.36L15 125.35L65.02 175.16L91.25 148.94L42.4 100.09Z" />
				<path id="&lt;Path&gt;" class="shp0" d="M116.55 99.81L91.49 124.87L66.42 99.81L91.49 74.75L116.55 99.81Z" />
			</g>
			<path id="&lt;Path&gt;" class="shp2" d="M166.43 105.69C166.43 103.37 166.8 101.18 167.55 99.12C168.31 97.06 169.4 95.27 170.82 93.75C172.25 92.22 173.98 91.01 176.02 90.11C178.05 89.22 180.37 88.77 182.98 88.77C184.69 88.77 186.26 88.92 187.68 89.23C189.11 89.53 190.49 89.97 191.84 90.54L189.94 97.81C189.09 97.48 188.15 97.2 187.13 96.95C186.11 96.71 184.97 96.59 183.71 96.59C181.02 96.59 179.02 97.42 177.7 99.09C176.37 100.76 175.71 102.96 175.71 105.69C175.71 108.58 176.33 110.82 177.57 112.41C178.82 114 180.98 114.79 184.08 114.79C185.18 114.79 186.36 114.69 187.62 114.48C188.88 114.28 190.04 113.96 191.1 113.51L192.39 120.96C191.33 121.41 190 121.79 188.42 122.12C186.83 122.45 185.08 122.61 183.16 122.61C180.23 122.61 177.7 122.17 175.59 121.3C173.47 120.42 171.73 119.23 170.37 117.72C169 116.22 168 114.43 167.37 112.38C166.74 110.32 166.43 108.09 166.43 105.69Z" />
			<path id="&lt;Path&gt;" class="shp2" d="M217.86 98.25C217.04 98.05 216.09 97.84 214.99 97.62C213.89 97.4 212.71 97.29 211.45 97.29C210.87 97.29 210.19 97.34 209.4 97.44C208.6 97.54 208 97.65 207.6 97.77L207.6 121.75L198.5 121.75L198.5 92.04C200.12 91.48 202.05 90.96 204.27 90.46C206.49 89.96 208.96 89.71 211.69 89.71C212.18 89.71 212.77 89.74 213.46 89.8C214.15 89.86 214.85 89.94 215.54 90.04C216.23 90.14 216.92 90.26 217.61 90.4C218.31 90.54 218.9 90.71 219.39 90.91L217.86 98.25Z" />
			<path id="&lt;Compound Path&gt;" fill-rule="evenodd" class="shp2" d="M222.14 105.93C222.14 103.08 222.57 100.59 223.45 98.45C224.32 96.31 225.47 94.53 226.9 93.1C228.33 91.68 229.96 90.6 231.82 89.87C233.67 89.13 235.57 88.77 237.53 88.77C242.09 88.77 245.69 90.16 248.34 92.95C250.99 95.74 252.31 99.84 252.31 105.26C252.31 105.79 252.29 106.37 252.25 107C252.21 107.63 252.17 108.19 252.13 108.68L231.48 108.68C231.69 110.55 232.56 112.04 234.11 113.14C235.65 114.24 237.73 114.79 240.34 114.79C242.01 114.79 243.65 114.64 245.26 114.33C246.86 114.03 248.18 113.65 249.2 113.2L250.42 120.59C249.93 120.84 249.28 121.08 248.46 121.33C247.65 121.57 246.74 121.78 245.74 121.97C244.75 122.15 243.68 122.3 242.54 122.42C241.4 122.55 240.26 122.61 239.12 122.61C236.22 122.61 233.71 122.18 231.57 121.33C229.44 120.47 227.66 119.3 226.26 117.81C224.85 116.33 223.81 114.57 223.14 112.53C222.47 110.49 222.14 108.29 222.14 105.93ZM243.52 102.45C243.47 101.68 243.34 100.92 243.12 100.19C242.89 99.46 242.55 98.81 242.08 98.24C241.61 97.67 241.02 97.2 240.31 96.83C239.6 96.46 238.71 96.28 237.65 96.28C236.63 96.28 235.76 96.45 235.02 96.8C234.29 97.15 233.68 97.6 233.19 98.17C232.7 98.74 232.33 99.41 232.06 100.16C231.8 100.91 231.6 101.68 231.48 102.45L243.52 102.45Z" />
			<path id="&lt;Compound Path&gt;" fill-rule="evenodd" class="shp2" d="M270.88 88.77C273.57 88.77 275.81 89.07 277.6 89.68C279.39 90.29 280.83 91.17 281.91 92.31C282.99 93.45 283.75 94.84 284.2 96.46C284.65 98.09 284.87 99.91 284.87 101.9L284.87 120.84C283.57 121.12 281.76 121.46 279.43 121.85C277.11 122.23 274.3 122.43 271 122.43C268.93 122.43 267.04 122.24 265.35 121.88C263.66 121.51 262.21 120.91 260.99 120.07C259.76 119.24 258.83 118.15 258.18 116.81C257.52 115.46 257.2 113.81 257.2 111.86C257.2 109.98 257.57 108.4 258.33 107.09C259.08 105.79 260.09 104.75 261.35 103.98C262.61 103.2 264.06 102.64 265.69 102.3C267.32 101.95 269.01 101.78 270.76 101.78C271.94 101.78 272.99 101.83 273.9 101.93C274.82 102.03 275.56 102.17 276.13 102.33L276.13 101.47C276.13 99.93 275.67 98.68 274.73 97.75C273.79 96.81 272.16 96.34 269.84 96.34C268.3 96.34 266.77 96.45 265.26 96.68C263.75 96.9 262.45 97.22 261.35 97.62L260.19 90.29C260.72 90.13 261.38 89.96 262.18 89.77C262.97 89.59 263.84 89.43 264.77 89.29C265.71 89.14 266.7 89.02 267.74 88.92C268.77 88.82 269.82 88.77 270.88 88.77ZM271.62 115.4C272.51 115.4 273.37 115.38 274.18 115.34C274.99 115.3 275.65 115.24 276.13 115.16L276.13 108.25C275.77 108.17 275.22 108.09 274.49 108.01C273.75 107.93 273.08 107.89 272.47 107.89C271.62 107.89 270.81 107.94 270.06 108.04C269.3 108.14 268.64 108.34 268.07 108.62C267.5 108.91 267.05 109.29 266.73 109.78C266.4 110.27 266.24 110.88 266.24 111.61C266.24 113.04 266.72 114.03 267.67 114.58C268.63 115.13 269.94 115.4 271.62 115.4Z" />
			<path id="&lt;Path&gt;" class="shp2" d="M292.81 81.62L301.91 80.15L301.91 89.62L312.85 89.62L312.85 97.2L301.91 97.2L301.91 108.5C301.91 110.41 302.25 111.94 302.92 113.08C303.59 114.22 304.95 114.79 306.98 114.79C307.96 114.79 308.97 114.7 310.01 114.52C311.04 114.33 311.99 114.08 312.85 113.75L314.13 120.84C313.03 121.29 311.81 121.67 310.46 122C309.12 122.32 307.47 122.49 305.52 122.49C303.03 122.49 300.97 122.15 299.35 121.48C297.72 120.81 296.42 119.87 295.44 118.67C294.46 117.47 293.78 116.01 293.39 114.3C293 112.59 292.81 110.7 292.81 108.62L292.81 81.62Z" />
			<path id="&lt;Compound Path&gt;" fill-rule="evenodd" class="shp2" d="M350.24 105.63C350.24 108.15 349.88 110.46 349.14 112.56C348.41 114.66 347.35 116.45 345.97 117.94C344.58 119.42 342.92 120.57 340.99 121.39C339.05 122.2 336.88 122.61 334.48 122.61C332.12 122.61 329.97 122.2 328.04 121.39C326.1 120.57 324.44 119.42 323.06 117.94C321.67 116.45 320.59 114.66 319.82 112.56C319.05 110.46 318.66 108.15 318.66 105.63C318.66 103.1 319.06 100.8 319.85 98.72C320.65 96.65 321.75 94.88 323.15 93.41C324.56 91.94 326.23 90.8 328.16 89.99C330.09 89.17 332.2 88.77 334.48 88.77C336.8 88.77 338.93 89.17 340.87 89.99C342.8 90.8 344.46 91.94 345.84 93.41C347.23 94.88 348.31 96.65 349.08 98.72C349.86 100.8 350.24 103.1 350.24 105.63ZM340.96 105.63C340.96 102.82 340.4 100.61 339.28 99C338.16 97.39 336.56 96.59 334.48 96.59C332.41 96.59 330.8 97.39 329.66 99C328.52 100.61 327.95 102.82 327.95 105.63C327.95 108.44 328.52 110.67 329.66 112.32C330.8 113.97 332.41 114.79 334.48 114.79C336.56 114.79 338.16 113.97 339.28 112.32C340.4 110.67 340.96 108.44 340.96 105.63Z" />
			<path id="&lt;Path&gt;" class="shp2" d="M357.27 90.72C358.81 90.27 360.81 89.86 363.25 89.47C365.7 89.08 368.26 88.89 370.95 88.89C373.68 88.89 375.95 89.25 377.76 89.96C379.57 90.67 381.01 91.68 382.07 92.98C383.13 94.29 383.88 95.83 384.33 97.62C384.78 99.42 385 101.41 385 103.61L385 121.75L375.9 121.75L375.9 104.71C375.9 101.78 375.51 99.7 374.74 98.48C373.96 97.26 372.52 96.65 370.4 96.65C369.75 96.65 369.06 96.68 368.32 96.74C367.59 96.8 366.94 96.87 366.37 96.95L366.37 121.75L357.27 121.75L357.27 90.72Z" />
		</g>
	</g>
</svg>
