<svg width="168" height="68" viewBox="0 0 168 68" fill="none" xmlns="http://www.w3.org/2000/svg">
    <path d="M29.6266 19.2564L17.7849 7.35657L36.2976 7.38391L48.2316 19.2803C47.0094 20.5022 45.5582 21.471 43.9611 22.1312C42.364 22.7914 40.6523 23.1301 38.9241 23.1279C37.1959 23.1257 35.4852 22.7826 33.8897 22.1183C32.2943 21.4539 30.8456 20.4814 29.6266 19.2564Z" fill="#43E296"/>
    <path d="M51.2697 34.5942C51.261 33.3965 51.4658 32.2068 51.8746 31.081C52.2558 30.0154 52.8534 29.0403 53.6297 28.2169C54.4061 27.3934 55.3444 26.7396 56.3858 26.2965C57.5611 25.8032 58.8262 25.56 60.1006 25.5822C60.944 25.576 61.7858 25.6573 62.6125 25.8248C63.371 25.9883 64.1125 26.2228 64.827 26.5254L63.8154 30.3975C63.3244 30.2112 62.8222 30.0559 62.3117 29.9327C61.7131 29.7967 61.1006 29.7314 60.4868 29.7379C59.0514 29.7379 57.9817 30.1833 57.2777 31.0742C56.5737 31.965 56.2206 33.1383 56.2183 34.5942C56.2183 36.1366 56.5487 37.3316 57.2094 38.1792C57.8701 39.0267 59.0275 39.4505 60.6816 39.4505C61.3149 39.4466 61.9469 39.3917 62.5715 39.2865C63.2096 39.1879 63.8338 39.0135 64.4306 38.767L65.1141 42.7416C64.4293 43.0154 63.7198 43.2225 62.9952 43.3601C62.0723 43.5411 61.1334 43.6281 60.1929 43.6199C58.8146 43.6593 57.442 43.427 56.1534 42.9364C55.0917 42.5194 54.1383 41.8675 53.3647 41.0294C52.6283 40.2092 52.0832 39.2357 51.7687 38.1792C51.4229 37.0161 51.2547 35.8075 51.2697 34.5942Z" fill="white"/>
    <path d="M78.7157 30.3257C78.2817 30.2164 77.7724 30.1036 77.1846 29.984C76.5623 29.8604 75.9292 29.7997 75.2947 29.8028C74.9289 29.8073 74.5636 29.8347 74.2011 29.8849C73.8795 29.918 73.5608 29.9751 73.2477 30.0557V43.1551H68.3777V26.9355C69.3864 26.5924 70.4132 26.3049 71.4535 26.0743C72.7541 25.7887 74.0828 25.6511 75.4144 25.6642C75.6741 25.6642 75.9885 25.6813 76.361 25.7155C76.7335 25.7497 77.0992 25.7907 77.4683 25.8453C77.8374 25.9 78.2065 25.965 78.5756 26.0401C78.8982 26.1015 79.2141 26.1942 79.5188 26.317L78.7157 30.3257Z" fill="white"/>
    <path d="M80.9917 34.7241C80.9637 33.3629 81.2017 32.0093 81.6923 30.7393C82.1078 29.6755 82.7331 28.7062 83.5309 27.889C84.2776 27.1383 85.1711 26.5496 86.1556 26.1598C87.1255 25.7735 88.16 25.5751 89.204 25.5754C91.635 25.5754 93.5568 26.3193 94.9694 27.807C96.3819 29.2948 97.0882 31.4831 97.0882 34.3721C97.0882 34.6557 97.0882 34.9667 97.0575 35.3016C97.0267 35.6366 97.013 35.9373 96.9891 36.197H85.9779C86.0175 36.6752 86.164 37.1384 86.4065 37.5525C86.649 37.9665 86.9814 38.3208 87.3791 38.5893C88.2015 39.1771 89.3088 39.471 90.7009 39.471C91.5816 39.4721 92.4604 39.3897 93.3255 39.2249C94.0474 39.096 94.7524 38.8862 95.4273 38.5995L96.0766 42.5434C95.7406 42.7019 95.392 42.8322 95.0343 42.933C94.5581 43.0741 94.0743 43.1882 93.5853 43.2747C93.0521 43.375 92.4826 43.457 91.8765 43.5208C91.2703 43.585 90.6611 43.617 90.0516 43.6165C88.6794 43.6471 87.3141 43.4151 86.0291 42.933C84.958 42.5237 83.9897 41.8844 83.1926 41.0602C82.4378 40.2603 81.8694 39.3033 81.5283 38.2578C81.1607 37.1164 80.9795 35.9232 80.9917 34.7241ZM92.3857 32.8684C92.3655 32.459 92.2943 32.0537 92.1738 31.662C92.0581 31.2873 91.87 30.939 91.6202 30.6367C91.3596 30.3238 91.0374 30.0679 90.6735 29.8849C90.2317 29.6771 89.7467 29.5775 89.2587 29.5944C88.7769 29.5817 88.2983 29.6763 87.8575 29.8712C87.4829 30.0418 87.1495 30.2913 86.8801 30.6025C86.6133 30.9142 86.408 31.2738 86.2752 31.662C86.1363 32.0598 86.0334 32.4693 85.9676 32.8855L92.3857 32.8684Z" fill="white"/>
    <path d="M106.996 25.5686C108.209 25.536 109.42 25.7011 110.581 26.0573C111.454 26.3271 112.248 26.8084 112.891 27.4585C113.476 28.0839 113.896 28.8449 114.114 29.673C114.356 30.6208 114.471 31.5965 114.456 32.5745V42.6767C113.773 42.827 112.795 43.0184 111.558 43.2132C110.07 43.4375 108.566 43.5415 107.061 43.5242C106.048 43.5331 105.038 43.4346 104.046 43.2303C103.215 43.064 102.423 42.7379 101.716 42.27C101.07 41.8305 100.552 41.228 100.215 40.5236C99.8462 39.6944 99.6686 38.7926 99.6958 37.8853C99.669 36.9996 99.8765 36.1225 100.297 35.3427C100.687 34.6624 101.242 34.0912 101.91 33.6818C102.625 33.2542 103.407 32.9525 104.224 32.7898C105.114 32.6031 106.021 32.5104 106.931 32.513C107.491 32.5095 108.051 32.5369 108.609 32.595C109.016 32.6243 109.419 32.6895 109.815 32.7898V32.3455C109.831 31.9806 109.773 31.6162 109.645 31.2743C109.516 30.9324 109.319 30.6202 109.067 30.3565C108.565 29.8576 107.696 29.6081 106.459 29.6081C105.641 29.608 104.824 29.6686 104.016 29.7892C103.304 29.8858 102.605 30.0541 101.927 30.2916L101.309 26.3819C101.593 26.2965 101.945 26.2042 102.368 26.1051C102.792 26.006 103.253 25.9206 103.735 25.8454C104.217 25.7702 104.761 25.7019 105.318 25.6506C105.875 25.5993 106.428 25.5686 106.996 25.5686ZM107.385 39.7752C107.864 39.7752 108.322 39.7752 108.752 39.7444C109.101 39.7301 109.449 39.697 109.795 39.6453V35.9647C109.503 35.9052 109.209 35.8607 108.913 35.8314C108.557 35.7912 108.198 35.7696 107.84 35.7664C107.409 35.7647 106.979 35.7922 106.551 35.8485C106.183 35.8922 105.825 35.9974 105.492 36.1595C105.202 36.2985 104.954 36.5119 104.774 36.778C104.591 37.0702 104.5 37.4109 104.515 37.7554C104.515 38.5164 104.77 39.0427 105.28 39.3343C105.932 39.66 106.657 39.8119 107.385 39.7752Z" fill="white"/>
    <path d="M118.701 21.7546L123.557 20.972V26.0231H129.391V30.0558H123.55V36.0945C123.509 36.9422 123.694 37.7855 124.087 38.538C124.447 39.1464 125.169 39.4505 126.253 39.4505C126.794 39.4477 127.334 39.3985 127.866 39.3036C128.384 39.2154 128.892 39.0792 129.384 38.8969L130.067 42.6766C129.432 42.9303 128.778 43.137 128.112 43.2952C127.245 43.4844 126.358 43.5716 125.471 43.555C124.349 43.5906 123.232 43.4083 122.18 43.0184C121.37 42.7017 120.652 42.1857 120.095 41.5181C119.554 40.8384 119.181 40.0413 119.005 39.1908C118.788 38.1951 118.684 37.1783 118.694 36.1594L118.701 21.7546Z" fill="white"/>
    <path d="M149.458 34.56C149.474 35.8165 149.277 37.0665 148.877 38.2578C148.513 39.322 147.931 40.2986 147.169 41.1251C146.424 41.9209 145.519 42.5489 144.513 42.9671C142.291 43.8328 139.825 43.8328 137.603 42.9671C136.597 42.5489 135.692 41.9209 134.948 41.1251C134.192 40.2926 133.61 39.3178 133.235 38.2578C132.811 37.0707 132.601 35.8173 132.617 34.5566C132.601 33.3011 132.816 32.0534 133.252 30.8759C133.642 29.8214 134.241 28.8565 135.012 28.0394C135.768 27.2549 136.676 26.6338 137.682 26.2144C139.859 25.3488 142.285 25.3488 144.462 26.2144C145.464 26.6314 146.369 27.253 147.117 28.0394C147.877 28.8592 148.464 29.824 148.843 30.8759C149.268 32.057 149.476 33.305 149.458 34.56ZM144.506 34.56C144.506 33.0631 144.208 31.8852 143.611 31.0263C143.33 30.6105 142.947 30.2737 142.499 30.0481C142.051 29.8225 141.552 29.7157 141.051 29.7379C140.548 29.7172 140.048 29.8246 139.598 30.05C139.148 30.2753 138.763 30.6113 138.478 31.0263C137.87 31.8829 137.565 33.0609 137.565 34.56C137.565 36.0592 137.87 37.2496 138.478 38.1313C138.757 38.5537 139.141 38.8969 139.592 39.1279C140.042 39.359 140.545 39.4701 141.051 39.4505C141.556 39.4714 142.057 39.3607 142.506 39.1295C142.954 38.8982 143.335 38.5542 143.611 38.1313C144.212 37.2496 144.512 36.0592 144.51 34.56H144.506Z" fill="white"/>
    <path d="M153.218 26.6109C154.267 26.3197 155.333 26.0914 156.409 25.9274C157.766 25.7185 159.138 25.6157 160.511 25.6198C161.751 25.5856 162.986 25.7838 164.154 26.2042C165.047 26.5309 165.84 27.0873 166.45 27.8172C167.031 28.5422 167.443 29.3874 167.657 30.2915C167.9 31.3387 168.015 32.4118 167.998 33.4869V43.1653H163.149V34.0713C163.149 32.5106 162.943 31.4034 162.53 30.7495C162.117 30.0967 161.348 29.7721 160.217 29.7721C159.875 29.7721 159.499 29.7721 159.109 29.8199C158.72 29.8678 158.371 29.8917 158.067 29.9327V43.1653H153.218V26.6109Z" fill="white"/>
    <path d="M27.0463 51.3776L9.71945 34.0508L36.2975 7.39416L17.7848 7.35657L0.18457 24.9602V43.1346L17.7438 60.6835H36.3727L47.7223 49.334C46.4994 48.1102 45.0474 47.1394 43.4491 46.477C41.8509 45.8147 40.1378 45.4737 38.4078 45.4737C36.6778 45.4737 34.9647 45.8147 33.3665 46.477C31.7683 47.1394 30.3162 48.1102 29.0934 49.334L27.0463 51.3776Z" fill="#42389D"/>
    <path d="M29.1172 49.31L17.7437 60.6835H36.3725L47.7221 49.3339L47.6982 49.31C46.4785 48.0893 45.0302 47.121 43.4361 46.4603C41.842 45.7996 40.1333 45.4596 38.4077 45.4596C36.6821 45.4596 34.9734 45.7996 33.3793 46.4603C31.7851 47.121 30.3369 48.0893 29.1172 49.31Z" fill="#42389D"/>
    <path d="M9.71943 34.0508L0.184544 24.9226L0 43.015L17.7438 60.6835L27.0462 51.3776L9.71943 34.0508Z" fill="#43E296"/>
    <path opacity="0.3" d="M0.18457 24.9226L9.71945 34.0508L13.7214 30.0352L0.18457 24.9226Z" fill="#31317A"/>
    <path d="M27.0463 51.3777L17.7438 60.6836L13.6941 56.8354L27.0463 51.3777Z" fill="#27B76F"/>
    <path d="M27.1329 25.0633L18.2424 33.9538L27.1329 42.8443L36.0234 33.9538L27.1329 25.0633Z" fill="#43E296"/>
    <path d="M36.2974 7.38391L27.0632 16.6522L30.0946 19.4785L36.2974 7.38391Z" fill="#27B76F"/>
</svg>
