<svg width="64" height="64" viewBox="0 0 64 64" fill="none" xmlns="http://www.w3.org/2000/svg">
    <rect width="64" height="64" rx="20" fill="#EAEFFE"/>
    <path d="M48.2782 42.8119C48.2782 42.8119 51.9204 40.3828 51.2463 38.8994C50.5707 37.4161 47.0636 38.6292 43.2847 40.7896C43.2847 40.7896 45.849 49.2662 30.87 45.4333C30.87 45.4333 39.3707 45.2426 40.7204 44.0265C42.0686 42.8119 41.908 39.9969 36.0107 39.9459C31.6898 39.9083 29.663 35.7931 25.782 35.0965C22.2958 34.4689 16.5667 36.8681 8 43.2894L14.4063 49.6956C14.4063 49.6956 18.7256 49.6956 19.8051 49.6956C20.8846 49.6956 27.4425 51.8921 33.9463 53.1547C38.2867 53.997 52.4594 45.2426 55.1573 43.2188C57.8553 41.195 53.6755 39.1697 48.2782 42.8119Z" fill="#2A64F6"/>
    <path d="M39 34.9992C45.6166 34.9992 51 29.6158 51 22.9992C51 16.3825 45.6166 11 39 11C32.3834 11 27 16.3825 27 22.9992C27 29.6158 32.3825 34.9992 39 34.9992ZM39 13.1811C44.4137 13.1811 48.8189 17.5855 48.8189 22.9992C48.8189 28.4128 44.4137 32.818 39 32.818C33.5863 32.818 29.182 28.4128 29.182 22.9992C29.182 17.5855 33.5863 13.1811 39 13.1811Z" fill="#2A64F6"/>
    <path d="M39.0005 35C45.0746 35 50 29.6259 50 23C50 16.3741 45.0746 11 39.0005 11C32.9265 11 28 16.3729 28 22.9988C28 29.6247 32.9254 35 39.0005 35ZM38.1345 24.1498C36.151 23.4559 34.752 22.4421 34.752 20.439C34.752 18.6327 35.8953 17.2016 37.9529 16.7468V14.9207H40.0277V16.5886C41.2838 16.6472 42.1391 16.925 42.7935 17.2227L42.2122 19.8623C41.719 19.6443 40.8465 19.1883 39.4636 19.1883C38.3892 19.1883 38.0604 19.6032 38.0604 20.0416C38.0604 20.5398 38.6814 20.916 40.2083 21.5114C42.5012 22.3249 43.3382 23.4571 43.3382 25.2633C43.3382 27.1094 42.138 28.6167 39.9536 29.0539V31.0793H37.8788V29.2321C36.6055 29.1547 35.3677 28.7761 34.6607 28.3776L35.2581 25.6384C36.0801 26.0744 37.2062 26.5116 38.4611 26.5116C39.3723 26.5116 40.0267 26.235 40.0267 25.5986C40.0277 24.9844 39.5002 24.607 38.1345 24.1498Z" fill="#2A64F6"/>
</svg>
