<svg width="999" height="755" viewBox="0 0 999 755" fill="none" xmlns="http://www.w3.org/2000/svg">
    <path opacity="0.5" d="M927.764 560.467C927.764 555.46 931.823 551.401 936.829 551.401H971.698C976.705 551.401 980.764 555.46 980.764 560.467V595.335C980.764 600.342 976.705 604.401 971.698 604.401H936.829C931.823 604.401 927.764 600.342 927.764 595.335V560.467Z" fill="url(#paint0_linear)"/>
    <path opacity="0.5" d="M158.17 107.55C156.017 103.073 157.901 97.6982 162.378 95.5454L193.556 80.553C198.033 78.4002 203.407 80.2843 205.56 84.7613L220.552 115.939C222.705 120.416 220.821 125.791 216.344 127.944L185.166 142.936C180.689 145.089 175.315 143.205 173.162 138.728L158.17 107.55Z" fill="url(#paint1_linear)"/>
    <path opacity="0.5" d="M10.5197 519.768C11.6521 514.931 16.4911 511.928 21.328 513.06L55.0126 520.946C59.8495 522.079 62.8526 526.918 61.7202 531.755L53.8342 565.439C52.7018 570.276 47.8628 573.279 43.0259 572.147L9.34132 564.261C4.50442 563.128 1.50132 558.289 2.6337 553.452L10.5197 519.768Z" fill="url(#paint2_linear)"/>
    <path d="M850.162 46.7854C851.918 42.4946 856.82 40.4395 861.11 42.1952C865.401 43.9508 867.456 48.8525 865.701 53.1433L824.763 153.194C823.007 157.485 818.106 159.54 813.815 157.784C809.524 156.029 807.469 151.127 809.224 146.836L850.162 46.7854Z" fill="url(#paint3_linear)"/>
    <path d="M501.135 12.6977C499.143 8.51137 500.922 3.50285 505.108 1.51089C509.295 -0.481076 514.303 1.29783 516.295 5.48418L562.743 103.099C564.735 107.286 562.956 112.294 558.769 114.286C554.583 116.278 549.574 114.499 547.582 110.313L501.135 12.6977Z" fill="url(#paint4_linear)"/>
    <path d="M323.989 444.392C319.171 441.699 317.449 435.611 320.142 430.794C322.835 425.976 328.923 424.254 333.74 426.947L446.069 489.738C450.886 492.431 452.609 498.519 449.916 503.337C447.223 508.154 441.135 509.876 436.317 507.183L323.989 444.392Z" fill="url(#paint5_linear)"/>
    <circle cx="526.692" cy="445.692" r="32.6921" fill="url(#paint6_linear)"/>
    <path d="M538.016 470.508C547.425 466.207 553.963 456.713 553.963 445.692C553.963 430.631 541.753 418.421 526.692 418.421C521.525 418.421 516.693 419.858 512.575 422.355C516.024 420.778 519.859 419.9 523.899 419.9C538.96 419.9 551.17 432.109 551.17 447.171C551.17 457.065 545.901 465.728 538.016 470.508Z" fill="#212121"/>
    <path d="M512.963 421.953C503.985 427.2 498.4 437.353 499.508 448.376C501.022 463.44 514.461 474.425 529.525 472.911C534.693 472.392 539.381 470.469 543.249 467.558C539.958 469.482 536.21 470.746 532.169 471.152C517.105 472.666 503.666 461.681 502.153 446.617C501.158 436.721 505.557 427.527 512.963 421.953Z" fill="white"/>
    <circle cx="831.192" cy="373" r="167" transform="rotate(90 831.192 373)" fill="url(#paint7_linear)"/>
    <path d="M704.427 430.847C726.395 478.91 774.893 512.306 831.192 512.306C908.129 512.306 970.499 449.936 970.499 372.999C970.499 346.603 963.157 321.922 950.405 300.886C958.458 318.505 962.946 338.095 962.946 358.733C962.946 435.67 900.576 498.04 823.639 498.04C773.099 498.04 728.844 471.125 704.427 430.847Z" fill="#212121"/>
    <path d="M952.456 302.868C925.653 257.005 873.789 228.477 817.48 234.136C740.528 241.868 684.416 310.519 692.149 387.47C694.802 413.871 704.625 437.82 719.495 457.578C709.669 440.765 703.211 421.622 701.137 400.98C693.404 324.028 749.517 255.378 826.468 247.645C877.018 242.566 923.986 265.037 952.456 302.868Z" fill="white"/>
    <path d="M394.419 620.21C391.426 610.662 396.745 600.494 406.299 597.499L495.868 569.423C505.422 566.428 515.593 571.74 518.586 581.288L555.195 698.077C558.188 707.625 552.869 717.793 543.315 720.788L453.746 748.864C444.192 751.859 434.021 746.547 431.028 736.999L394.419 620.21Z" fill="url(#paint8_linear)"/>
    <path d="M456.067 223.361C449.403 206.214 457.909 186.908 475.067 180.239L635.923 117.719C653.08 111.05 672.392 119.544 679.057 136.691L760.577 346.431C767.242 363.578 758.735 382.885 741.578 389.553L580.722 452.074C563.564 458.743 544.252 450.248 537.588 433.102L456.067 223.361Z" fill="#313131"/>
    <path d="M613.225 183.959L585.694 317.464L716.326 273.643L613.225 183.959Z" fill="url(#paint9_linear)"/>
    <path d="M565.319 229.517L537.788 363.021L668.42 319.201L565.319 229.517Z" stroke="url(#paint10_linear)" stroke-width="4"/>
    <path d="M886.182 181.061C886.78 173.805 893.15 168.407 900.411 169.005L960.952 174.002L979.964 196.063L973.241 277.589C972.644 284.845 966.274 290.243 959.013 289.645L890.941 284.041C883.68 283.444 878.278 277.077 878.875 269.82L886.182 181.061Z" fill="#42389D"/>
    <path opacity="0.1" d="M893.546 228.773C895.454 208.944 913.075 194.416 932.904 196.324C952.732 198.232 967.26 215.853 965.352 235.682C963.444 255.511 945.823 270.039 925.994 268.131C906.166 266.223 891.638 248.602 893.546 228.773Z" stroke="white" stroke-width="0.5"/>
    <path opacity="0.1" d="M901.326 229.522C902.821 213.99 916.623 202.61 932.155 204.105C947.687 205.599 959.066 219.402 957.572 234.934C956.077 250.465 942.275 261.845 926.743 260.35C911.211 258.856 899.832 245.053 901.326 229.522Z" stroke="white"/>
    <path opacity="0.2" d="M908.36 230.198C909.481 218.551 919.831 210.018 931.478 211.139C943.125 212.259 951.658 222.61 950.538 234.257C949.417 245.904 939.067 254.437 927.42 253.316C915.773 252.196 907.24 241.845 908.36 230.198Z" fill="white"/>
    <path d="M940.492 223.143C940.565 222.334 939.48 221.672 938.592 221.81L928.367 223.396C926.507 223.684 925.509 225.341 925.25 227.172L923.894 236.751C923.122 236.247 922.003 236.113 920.521 236.294C918.586 236.529 916.426 238.343 916.645 240.141C916.931 242.491 919.177 243.194 921.526 242.907C923.526 242.664 924.912 241.412 925.141 239.91L925.146 239.911L926.436 230.795C926.545 230.025 927.146 229.417 927.915 229.3L937.366 227.86C937.738 227.803 938.059 228.121 938.006 228.493L936.974 235.786C936.203 235.287 935.087 235.155 933.61 235.335C931.676 235.57 929.515 237.384 929.734 239.183C930.021 241.532 932.266 242.235 934.615 241.949C936.709 241.693 938.129 240.334 938.255 238.739L940.043 226.103L940.492 223.143Z" fill="#5E2BF6"/>
    <path d="M960.783 174.002C972.302 174.958 980.866 185.072 979.909 196.592L959.051 194.86L960.783 174.002Z" fill="#5E2BF6"/>
    <path d="M679.868 322.717C684.998 305.05 703.488 294.89 721.166 300.023L886.898 348.15C904.576 353.284 914.748 371.767 909.618 389.433L846.865 605.532C841.735 623.199 823.245 633.359 805.567 628.226L639.835 580.099C622.157 574.965 611.985 556.482 617.115 538.816L679.868 322.717Z" fill="white"/>
    <path d="M840.442 529.79C840.443 529.79 840.441 529.792 840.439 529.797C840.441 529.792 840.442 529.79 840.442 529.79ZM839.911 528.683C840.339 529.357 840.406 529.709 840.414 529.829C840.338 529.922 840.078 530.169 839.337 530.466C838.228 530.911 836.497 531.27 834.062 531.442C829.222 531.783 822.331 531.341 813.808 530.111C796.809 527.658 773.883 522.16 749.092 514.174C724.301 506.188 702.476 497.272 687.242 489.342C679.603 485.365 673.75 481.703 670.019 478.6C668.142 477.039 666.946 475.738 666.305 474.729C665.877 474.055 665.81 473.703 665.802 473.583C665.878 473.49 666.138 473.243 666.879 472.946C667.989 472.501 669.719 472.142 672.154 471.971C676.995 471.629 683.885 472.072 692.409 473.301C709.407 475.754 732.333 481.253 757.124 489.238C781.915 497.224 803.74 506.141 818.974 514.071C826.613 518.047 832.466 521.71 836.197 524.812C838.075 526.373 839.27 527.675 839.911 528.683ZM665.802 473.535C665.802 473.535 665.802 473.537 665.801 473.543C665.801 473.537 665.802 473.535 665.802 473.535ZM665.774 473.622C665.774 473.622 665.775 473.62 665.778 473.616C665.775 473.62 665.774 473.622 665.774 473.622ZM840.415 529.87C840.415 529.875 840.414 529.878 840.414 529.878C840.414 529.878 840.414 529.875 840.415 529.87Z" stroke="url(#paint11_linear)" stroke-width="6"/>
    <path d="M697.921 389.451C703.096 378.829 710.482 371.078 721.843 374.321C734.638 377.973 730.731 403.026 730.731 403.026C730.731 403.026 746.202 379.31 758.545 383.924C771.41 388.733 765.194 418.46 765.194 418.46C765.194 418.46 781.992 399.132 795.327 401.39C824.684 406.363 817.91 432.253 817.91 432.253C817.91 432.253 824.02 408.898 845.804 421.014C864.79 431.575 856.067 454.882 848.058 475.077C840.048 495.272 820.17 510.951 793.971 510.121C753.666 508.844 711.219 490.024 697.4 467.742C687.372 451.571 687.14 411.584 697.921 389.451Z" fill="url(#paint12_linear)"/>
    <circle cx="614.825" cy="571.565" r="56.8253" fill="url(#paint13_linear)"/>
    <path d="M634.509 614.7C650.863 607.224 662.227 590.722 662.227 571.565C662.227 545.386 641.004 524.163 614.825 524.163C605.843 524.163 597.445 526.661 590.287 531C596.282 528.26 602.948 526.733 609.971 526.733C636.15 526.733 657.373 547.956 657.373 574.135C657.373 591.333 648.214 606.391 634.509 614.7Z" fill="#212121"/>
    <path d="M590.962 530.302C575.356 539.423 565.649 557.071 567.574 576.231C570.205 602.415 593.565 621.509 619.749 618.877C628.733 617.975 636.882 614.632 643.605 609.572C637.884 612.916 631.37 615.113 624.346 615.819C598.162 618.45 574.802 599.357 572.171 573.172C570.442 555.972 578.089 539.99 590.962 530.302Z" fill="white"/>
    <path d="M606.358 70.0515C607.157 60.3467 615.677 53.1274 625.388 53.9268L716.43 61.4216C726.141 62.2211 733.366 70.7365 732.567 80.4413L722.794 199.151C721.995 208.856 713.475 216.075 703.764 215.276L612.722 207.781C603.011 206.982 595.787 198.466 596.586 188.761L606.358 70.0515Z" fill="url(#paint14_linear)"/>
    <mask id="mask0" mask-type="alpha" maskUnits="userSpaceOnUse" x="595" y="52" width="140" height="165">
        <path d="M606.358 70.0515C607.157 60.3467 615.677 53.1274 625.388 53.9268L716.43 61.4216C726.141 62.2211 733.366 70.7365 732.567 80.4413L722.794 199.151C721.995 208.856 713.475 216.075 703.764 215.276L612.722 207.781C603.011 206.982 595.787 198.466 596.586 188.761L606.358 70.0515Z" fill="url(#paint15_linear)"/>
    </mask>
    <g mask="url(#mask0)">
        <path d="M590.681 132.778L622.951 135.143C622.951 135.143 621.879 127.158 617.982 125.963C615.24 125.122 613.668 127.814 610.812 127.553C606.214 127.133 605.667 121.35 601.077 120.844C597.097 120.406 591.324 124.009 591.324 124.009L590.681 132.778Z" fill="white" fill-opacity="0.16"/>
        <path d="M742.694 113.24L700.252 110.129C700.252 110.129 701.718 102.383 707.234 101.472C711.263 100.806 713.343 101.802 717.406 102.217C724.135 102.905 726.393 94.0774 733.106 94.9046C737.743 95.476 743.62 100.612 743.62 100.612L742.694 113.24Z" fill="white" fill-opacity="0.16"/>
        <path d="M695.104 88.9452L641.087 84.9858C641.087 84.9858 644.694 76.5011 649.523 75.73C653.011 75.1733 654.62 78.1759 658.138 78.4774C665.299 79.0909 668.296 69.6757 675.216 71.6182C680.838 73.1967 685.72 82.2624 685.72 82.2624C685.72 82.2624 689.122 81.7603 690.982 82.648C693.634 83.9145 695.104 88.9452 695.104 88.9452Z" fill="white" fill-opacity="0.16"/>
        <path d="M640.622 105.758L610.456 103.547C610.456 103.547 616.022 91.8908 622.178 92.7687C625.839 93.2908 626.358 97.1595 629.886 98.2707C632.506 99.0962 634.552 97.3613 636.901 98.785C639.541 100.385 640.622 105.758 640.622 105.758Z" fill="white" fill-opacity="0.16"/>
        <path d="M585.997 205.244L623.609 172.309L640.838 192.588L661.117 175.359L678.347 195.638L698.626 178.408L731.475 217.071L658.068 212.867L585.997 205.244Z" fill="url(#paint16_linear)"/>
        <path d="M692.041 193.812L686.589 188.606L698.574 178.465L709.214 190.856L703.609 194.752L698.371 189.739L692.041 193.812Z" fill="white" fill-opacity="0.1"/>
        <path d="M617.115 187.643L611.812 182.687L623.648 172.297L634.063 184.625L628.683 188.584L623.445 183.571L617.115 187.643Z" fill="white" fill-opacity="0.1"/>
        <path d="M654.576 190.706L649.125 185.5L661.109 175.359L671.75 187.75L666.145 191.646L660.906 186.633L654.576 190.706Z" fill="white" fill-opacity="0.1"/>
    </g>
    <path d="M666.63 118.986L667.928 106.392" stroke="#D1385F" stroke-width="4" stroke-linecap="round"/>
    <path d="M661.942 164.467L663.24 151.872" stroke="#D1385F" stroke-width="4" stroke-linecap="round"/>
    <path d="M681.094 131.948L693.471 129.281" stroke="#D1385F" stroke-width="4" stroke-linecap="round"/>
    <path d="M636.398 141.578L648.775 138.911" stroke="#D1385F" stroke-width="4" stroke-linecap="round"/>
    <path d="M680.094 142.02L691.706 147.068" stroke="#D1385F" stroke-width="4" stroke-linecap="round"/>
    <path d="M638.164 123.791L649.775 128.839" stroke="#D1385F" stroke-width="4" stroke-linecap="round"/>
    <path d="M673.28 149.698L679.672 160.628" stroke="#D1385F" stroke-width="4" stroke-linecap="round"/>
    <path d="M650.197 110.231L656.589 121.161" stroke="#D1385F" stroke-width="4" stroke-linecap="round"/>
    <path d="M653.925 147.759L645.492 157.204" stroke="#D1385F" stroke-width="4" stroke-linecap="round"/>
    <path d="M684.378 113.655L675.945 123.099" stroke="#D1385F" stroke-width="4" stroke-linecap="round"/>
    <circle cx="664.778" cy="135.236" r="18.1128" transform="rotate(5.88545 664.778 135.236)" fill="#FFAE73"/>
    <path opacity="0.2" d="M673.016 144.676C675.786 123.316 695.347 108.246 716.707 111.016C738.068 113.786 753.138 133.347 750.368 154.707C747.598 176.068 728.036 191.138 706.676 188.368C685.316 185.598 670.246 166.036 673.016 144.676Z" fill="white"/>
    <path opacity="0.2" d="M681.073 145.721C683.266 128.811 698.752 116.88 715.663 119.073C732.573 121.266 744.503 136.752 742.31 153.663C740.117 170.573 724.631 182.503 707.721 180.31C690.811 178.117 678.88 162.631 681.073 145.721Z" fill="white"/>
    <path opacity="0.2" d="M689.131 146.766C690.746 134.306 702.157 125.515 714.617 127.131C727.078 128.747 735.869 140.157 734.253 152.618C732.637 165.078 721.226 173.869 708.766 172.253C696.306 170.637 687.515 159.226 689.131 146.766Z" fill="white"/>
    <path d="M703.347 157.178L705.545 140.228C705.792 138.328 708.033 137.442 709.512 138.66L721.678 148.679C723.051 149.81 722.789 151.983 721.187 152.756L706.824 159.687C705.08 160.528 703.098 159.098 703.347 157.178Z" fill="#E54775"/>
    <defs>
        <linearGradient id="paint0_linear" x1="981.173" y1="612.424" x2="916.26" y2="557.76" gradientUnits="userSpaceOnUse">
            <stop stop-color="#5E2BF6"/>
            <stop offset="1" stop-color="#5E2BF6" stop-opacity="0"/>
        </linearGradient>
        <linearGradient id="paint1_linear" x1="228.266" y1="131.043" x2="146.72" y2="110.076" gradientUnits="userSpaceOnUse">
            <stop stop-color="#5E2BF6"/>
            <stop offset="1" stop-color="#5E2BF6" stop-opacity="0"/>
        </linearGradient>
        <linearGradient id="paint2_linear" x1="79" y1="558" x2="0.583253" y2="528" gradientUnits="userSpaceOnUse">
            <stop stop-color="#5E2BF6"/>
            <stop offset="1" stop-color="#5E2BF6" stop-opacity="0"/>
        </linearGradient>
        <linearGradient id="paint3_linear" x1="883.043" y1="55.8732" x2="796.291" y2="143.568" gradientUnits="userSpaceOnUse">
            <stop stop-color="#52EAFF"/>
            <stop offset="1" stop-color="#0042E9" stop-opacity="0"/>
        </linearGradient>
        <linearGradient id="paint4_linear" x1="529.986" y1="-5.50517" x2="536.461" y2="117.679" gradientUnits="userSpaceOnUse">
            <stop stop-color="#52EAFF"/>
            <stop offset="1" stop-color="#0042E9" stop-opacity="0"/>
        </linearGradient>
        <linearGradient id="paint5_linear" x1="339.465" y1="406.848" x2="430.592" y2="521.995" gradientUnits="userSpaceOnUse">
            <stop stop-color="#52EAFF"/>
            <stop offset="1" stop-color="#0042E9" stop-opacity="0"/>
        </linearGradient>
        <linearGradient id="paint6_linear" x1="546.057" y1="426.276" x2="496.433" y2="475.9" gradientUnits="userSpaceOnUse">
            <stop stop-color="#43E296"/>
            <stop offset="1" stop-color="#96E547"/>
        </linearGradient>
        <linearGradient id="paint7_linear" x1="930.113" y1="273.815" x2="676.62" y2="527.308" gradientUnits="userSpaceOnUse">
            <stop stop-color="#43E296"/>
            <stop offset="1" stop-color="#96E547"/>
        </linearGradient>
        <linearGradient id="paint8_linear" x1="521" y1="732" x2="487.789" y2="517.379" gradientUnits="userSpaceOnUse">
            <stop stop-color="#8338FF" stop-opacity="0.4"/>
            <stop offset="1" stop-color="#E54780"/>
        </linearGradient>
        <linearGradient id="paint9_linear" x1="613.54" y1="183.853" x2="651.01" y2="295.553" gradientUnits="userSpaceOnUse">
            <stop offset="0.296069" stop-color="#43E296" stop-opacity="0"/>
            <stop offset="1" stop-color="#43E296"/>
        </linearGradient>
        <linearGradient id="paint10_linear" x1="565.635" y1="229.411" x2="603.104" y2="341.111" gradientUnits="userSpaceOnUse">
            <stop offset="0.0564793" stop-color="#212121" stop-opacity="0"/>
            <stop offset="1" stop-color="#212121"/>
        </linearGradient>
        <linearGradient id="paint11_linear" x1="763.347" y1="521.337" x2="773.347" y2="488.337" gradientUnits="userSpaceOnUse">
            <stop stop-color="#E54775"/>
            <stop offset="1" stop-color="#47E5E5" stop-opacity="0.54"/>
        </linearGradient>
        <linearGradient id="paint12_linear" x1="792.624" y1="387.97" x2="759.111" y2="509.696" gradientUnits="userSpaceOnUse">
            <stop stop-color="#E54775"/>
            <stop offset="1" stop-color="#FF7373"/>
        </linearGradient>
        <linearGradient id="paint13_linear" x1="648.485" y1="537.815" x2="562.229" y2="624.071" gradientUnits="userSpaceOnUse">
            <stop stop-color="#43E296"/>
            <stop offset="1" stop-color="#96E547"/>
        </linearGradient>
        <linearGradient id="paint14_linear" x1="677" y1="52" x2="659.587" y2="217.692" gradientUnits="userSpaceOnUse">
            <stop stop-color="#E54775"/>
            <stop offset="1" stop-color="#FF7373"/>
        </linearGradient>
        <linearGradient id="paint15_linear" x1="677" y1="52" x2="659.587" y2="217.692" gradientUnits="userSpaceOnUse">
            <stop stop-color="#E54775"/>
            <stop offset="1" stop-color="#FF7373"/>
        </linearGradient>
        <linearGradient id="paint16_linear" x1="661.643" y1="175.401" x2="660.118" y2="216.5" gradientUnits="userSpaceOnUse">
            <stop stop-color="#CC325C"/>
            <stop offset="1" stop-color="#CC325C" stop-opacity="0"/>
        </linearGradient>
    </defs>
</svg>
