<svg width="64" height="64" viewBox="0 0 64 64" fill="none" xmlns="http://www.w3.org/2000/svg">
    <rect opacity="0.2" width="64" height="64" rx="20" fill="#2A64F6"/>
    <path d="M49.8994 27.0058C49.6508 26.269 49.0294 25.7363 48.257 25.6209L38.2785 24.1739L33.8219 15.1275C33.4756 14.4261 32.7743 14 32.0019 14C31.2207 14 30.5282 14.435 30.182 15.1275L25.7165 24.1739L15.738 25.6209C14.9656 25.7363 14.3442 26.269 14.1045 27.0058C13.8559 27.7516 14.0601 28.5506 14.6194 29.0832L21.8458 36.1233L20.1413 46.0574C20.0081 46.8298 20.3189 47.5844 20.9492 48.046C21.5795 48.4988 22.3963 48.5609 23.0887 48.1969L31.9931 43.5184L40.9152 48.2058C41.217 48.3656 41.5455 48.4455 41.8651 48.4455C42.2823 48.4455 42.6996 48.3124 43.0547 48.0549C43.685 47.5933 43.9957 46.8387 43.8626 46.0663L42.1669 36.1321L49.3845 29.0921C49.9438 28.5506 50.1391 27.7516 49.8994 27.0058Z" fill="#2A64F6"/>
</svg>
