<svg width="24" height="24" viewBox="0 0 24 24" fill="none" xmlns="http://www.w3.org/2000/svg">
    <path fill-rule="evenodd" clip-rule="evenodd" d="M20.8235 6.71905C20.29 7.45794 19.6451 8.0875 18.8886 8.60774C18.8966 8.71329 18.9006 8.87163 18.9006 9.08274C18.9006 10.0629 18.7493 11.0412 18.4467 12.0176C18.1441 12.994 17.6843 13.9307 17.0672 14.828C16.4501 15.7252 15.7155 16.5187 14.8635 17.2086C14.0115 17.8985 12.9844 18.4489 11.782 18.8598C10.5797 19.2707 9.29373 19.4762 7.92416 19.4762C5.76629 19.4762 3.79159 18.9296 2 17.8363C2.27869 17.8665 2.58923 17.8815 2.93162 17.8815C4.72321 17.8815 6.31969 17.3613 7.72111 16.3208C6.88504 16.3058 6.13656 16.0626 5.47566 15.5914C4.81477 15.1201 4.3609 14.5189 4.11406 13.7875C4.37683 13.8252 4.61969 13.844 4.84264 13.844C5.18503 13.844 5.52344 13.8026 5.85787 13.7196C4.96605 13.5462 4.22753 13.1259 3.64228 12.4586C3.05703 11.7914 2.76441 11.0167 2.76441 10.1345V10.0893C3.30586 10.3758 3.88713 10.5304 4.50821 10.553C3.98268 10.2212 3.56465 9.7877 3.25411 9.25238C2.94356 8.71706 2.78829 8.13651 2.78829 7.51071C2.78829 6.84722 2.96347 6.23274 3.31382 5.66726C4.2773 6.79068 5.44978 7.68978 6.83129 8.36458C8.21281 9.03939 9.69184 9.41448 11.2684 9.48988C11.2047 9.20337 11.1729 8.92441 11.1729 8.65298C11.1729 7.64265 11.5491 6.78125 12.3016 6.06875C13.054 5.35625 13.9638 5 15.0308 5C16.1455 5 17.0851 5.38452 17.8495 6.15357C18.7174 5.99524 19.5336 5.70119 20.298 5.27143C20.0034 6.1385 19.438 6.80952 18.602 7.28452C19.3425 7.20913 20.083 7.02064 20.8235 6.71905Z" fill="white"/>
</svg>
