<?xml version="1.0" encoding="UTF-8" standalone="no"?>
<svg
   xmlns:dc="http://purl.org/dc/elements/1.1/"
   xmlns:cc="http://creativecommons.org/ns#"
   xmlns:rdf="http://www.w3.org/1999/02/22-rdf-syntax-ns#"
   xmlns:svg="http://www.w3.org/2000/svg"
   xmlns="http://www.w3.org/2000/svg"
   xmlns:sodipodi="http://sodipodi.sourceforge.net/DTD/sodipodi-0.dtd"
   xmlns:inkscape="http://www.inkscape.org/namespaces/inkscape"
   version="1.1"
   id="Layer_1"
   x="0px"
   y="0px"
   viewBox="0 0 170.03999 188"
   xml:space="preserve"
   sodipodi:docname="icon.svg"
   width="170.03999"
   height="188"
   inkscape:version="1.0.1 (3bc2e813f5, 2020-09-07)"><metadata
   id="metadata49"><rdf:RDF><cc:Work
       rdf:about=""><dc:format>image/svg+xml</dc:format><dc:type
         rdf:resource="http://purl.org/dc/dcmitype/StillImage" /><dc:title></dc:title></cc:Work></rdf:RDF></metadata><defs
   id="defs47" /><sodipodi:namedview
   pagecolor="#ffffff"
   bordercolor="#666666"
   borderopacity="1"
   objecttolerance="10"
   gridtolerance="10"
   guidetolerance="10"
   inkscape:pageopacity="0"
   inkscape:pageshadow="2"
   inkscape:window-width="1600"
   inkscape:window-height="837"
   id="namedview45"
   showgrid="false"
   inkscape:pagecheckerboard="true"
   fit-margin-top="0"
   fit-margin-left="0"
   fit-margin-right="0"
   fit-margin-bottom="0"
   inkscape:zoom="0.67"
   inkscape:cx="73.0797"
   inkscape:cy="264.89075"
   inkscape:window-x="2552"
   inkscape:window-y="537"
   inkscape:window-maximized="1"
   inkscape:current-layer="g42"
   inkscape:document-rotation="0" />
<style
   type="text/css"
   id="style2">
	.st0{fill:#42389D;}
	.st1{fill:#43E296;}
	.st2{fill:#FFFFFF;}
	.st3{opacity:0.3;fill:#42389D;}
	.st4{fill:#27B76F;}
	.st5{fill:#31317A;}
</style>

<g
   id="g42"
   transform="translate(-414.98,-364.96)">
	
	<g
   id="g40">
		<path
   class="st1"
   d="m 519.43,406.91 -41.75,-41.95 65.27,0.09 42.07,41.94 v 0 c -18.12,18.12 -47.51,18.08 -65.59,-0.08 z"
   id="path24" />
		<path
   class="st2"
   d="m 510.34,520.16 -61.09,-61.09 93.71,-94.02 -65.27,-0.09 -62.06,62.06 v 64.08 l 61.91,61.86 h 65.67 l 40.02,-40.02 v 0 c -18.14,-18.14 -47.54,-18.14 -65.67,0 z"
   id="path26" />
		<path
   class="st2"
   d="m 517.63,512.86 -40.1,40.1 h 65.67 l 40.02,-40.02 -0.08,-0.08 c -18.08,-18.09 -47.41,-18.09 -65.51,0 z"
   id="path28" />
		<polygon
   class="st1"
   points="414.98,490.66 477.54,552.96 510.34,520.16 449.25,459.07 415.62,426.89 "
   id="polygon30" />
		<polygon
   class="st3"
   points="463.25,444.87 415.62,426.89 449.25,459.07 "
   id="polygon32" />
		<polygon
   class="st4"
   points="463.25,539.39 510.34,520.16 477.54,552.96 "
   id="polygon34" />
		
			<rect
   x="488.47"
   y="436.56"
   transform="matrix(0.7071,-0.7071,0.7071,0.7071,-174.8029,495.4296)"
   class="st1"
   width="44.330002"
   height="44.330002"
   id="rect36" />
		<polygon
   class="st4"
   points="521.08,407.69 542.95,365.05 510.39,397.73 "
   id="polygon38" />
	</g>
</g>
</svg>
